<mxfile host="Electron" modified="2023-10-29T02:19:19.118Z" agent="Mozilla/5.0 (Windows NT 10.0; Win64; x64) AppleWebKit/537.36 (KHTML, like Gecko) draw.io/22.0.3 Chrome/114.0.5735.289 Electron/25.8.4 Safari/537.36" version="22.0.3" etag="_op-wZvP6l7672udmFfX" type="device">
  <diagram id="LkOnWeVT7-0t_uNRfe_2" name="Page-1">
    <mxGraphModel dx="1100" dy="942" grid="0" gridSize="10" guides="1" tooltips="1" connect="1" arrows="1" fold="1" page="1" pageScale="1" pageWidth="1100" pageHeight="850" background="#FFFFFF" math="0" shadow="0">
      <root>
        <mxCell id="0" />
        <mxCell id="1" parent="0" />
        <mxCell id="111" value="Default Location (Format Unknown)" style="shape=table;startSize=30;container=1;collapsible=0;childLayout=tableLayout;fontStyle=1;align=left;labelBackgroundColor=none;spacing=6;swimlaneLine=1;fillColor=#f5f5f5;strokeColor=#666666;shadow=1;rounded=1;swimlaneFillColor=default;fontFamily=Helvetica;fontSize=12;gradientColor=#b3b3b3;fontColor=#000000;" parent="1" vertex="1">
          <mxGeometry x="472.43" y="334" width="266.57" height="278" as="geometry" />
        </mxCell>
        <mxCell id="112" value="" style="shape=tableRow;horizontal=0;startSize=0;swimlaneHead=0;swimlaneBody=0;top=0;left=0;bottom=0;right=0;collapsible=0;dropTarget=0;fillColor=#FAE5C7;points=[[0,0.5],[1,0.5]];portConstraint=eastwest;labelBackgroundColor=none;swimlaneLine=0;strokeColor=#0F8B8D;fontColor=#143642;shadow=0;rounded=1;sketch=1;curveFitting=1;jiggle=2;" parent="111" vertex="1">
          <mxGeometry y="30" width="266.57" height="26" as="geometry" />
        </mxCell>
        <mxCell id="113" value="PK" style="shape=partialRectangle;html=1;whiteSpace=wrap;connectable=0;fillColor=#FAE5C7;top=0;left=0;bottom=0;right=0;overflow=hidden;labelBackgroundColor=none;strokeColor=#0F8B8D;strokeWidth=0;spacing=0;spacingTop=8;spacingLeft=8;spacingRight=8;spacingBottom=6;fontColor=#143642;shadow=0;rounded=1;sketch=1;curveFitting=1;jiggle=2;" parent="112" vertex="1">
          <mxGeometry width="44" height="26" as="geometry">
            <mxRectangle width="44" height="26" as="alternateBounds" />
          </mxGeometry>
        </mxCell>
        <mxCell id="114" value="id" style="shape=partialRectangle;html=1;whiteSpace=wrap;connectable=0;fillColor=#FAE5C7;top=0;left=0;bottom=0;right=0;overflow=hidden;labelBackgroundColor=none;strokeColor=#0F8B8D;strokeWidth=0;align=left;spacing=0;spacingTop=8;spacingLeft=8;spacingRight=8;spacingBottom=6;fontColor=#143642;shadow=0;rounded=1;sketch=1;curveFitting=1;jiggle=2;" parent="112" vertex="1">
          <mxGeometry x="44" width="132" height="26" as="geometry">
            <mxRectangle width="132" height="26" as="alternateBounds" />
          </mxGeometry>
        </mxCell>
        <mxCell id="115" value="BINARY(16)" style="shape=partialRectangle;html=1;whiteSpace=wrap;connectable=0;fillColor=#FAE5C7;top=0;left=0;bottom=0;right=0;overflow=hidden;labelBackgroundColor=none;strokeColor=#0F8B8D;strokeWidth=0;align=left;spacing=0;spacingTop=8;spacingLeft=8;spacingRight=8;spacingBottom=6;fontColor=#143642;shadow=0;rounded=1;sketch=1;curveFitting=1;jiggle=2;" parent="112" vertex="1">
          <mxGeometry x="176" width="91" height="26" as="geometry">
            <mxRectangle width="91" height="26" as="alternateBounds" />
          </mxGeometry>
        </mxCell>
        <mxCell id="120" style="shape=tableRow;horizontal=0;startSize=0;swimlaneHead=0;swimlaneBody=0;top=0;left=0;bottom=0;right=0;collapsible=0;dropTarget=0;fillColor=#FAE5C7;points=[[0,0.5],[1,0.5]];portConstraint=eastwest;labelBackgroundColor=none;fontColor=#143642;strokeColor=#0F8B8D;shadow=0;rounded=1;sketch=1;curveFitting=1;jiggle=2;" parent="111" vertex="1">
          <mxGeometry y="56" width="266.57" height="27" as="geometry" />
        </mxCell>
        <mxCell id="121" value="" style="shape=partialRectangle;html=1;whiteSpace=wrap;connectable=0;fillColor=#FAE5C7;top=0;left=0;bottom=0;right=0;overflow=hidden;labelBackgroundColor=none;strokeColor=#0F8B8D;strokeWidth=0;spacing=0;spacingTop=8;spacingLeft=8;spacingRight=8;spacingBottom=6;fontColor=#143642;shadow=0;rounded=1;sketch=1;curveFitting=1;jiggle=2;" parent="120" vertex="1">
          <mxGeometry width="44" height="27" as="geometry">
            <mxRectangle width="44" height="27" as="alternateBounds" />
          </mxGeometry>
        </mxCell>
        <mxCell id="122" value="name" style="shape=partialRectangle;html=1;whiteSpace=wrap;connectable=0;fillColor=#FAE5C7;top=0;left=0;bottom=0;right=0;overflow=hidden;labelBackgroundColor=none;strokeColor=#0F8B8D;strokeWidth=0;spacing=0;spacingTop=8;spacingLeft=8;spacingRight=8;spacingBottom=6;align=left;fontColor=#143642;shadow=0;rounded=1;sketch=1;curveFitting=1;jiggle=2;" parent="120" vertex="1">
          <mxGeometry x="44" width="132" height="27" as="geometry">
            <mxRectangle width="132" height="27" as="alternateBounds" />
          </mxGeometry>
        </mxCell>
        <mxCell id="123" value="VARCHAR" style="shape=partialRectangle;html=1;whiteSpace=wrap;connectable=0;fillColor=#FAE5C7;top=0;left=0;bottom=0;right=0;overflow=hidden;labelBackgroundColor=none;strokeColor=#0F8B8D;strokeWidth=0;spacing=0;spacingTop=8;spacingLeft=8;spacingRight=8;spacingBottom=6;align=left;fontColor=#143642;shadow=0;rounded=1;sketch=1;curveFitting=1;jiggle=2;" parent="120" vertex="1">
          <mxGeometry x="176" width="91" height="27" as="geometry">
            <mxRectangle width="91" height="27" as="alternateBounds" />
          </mxGeometry>
        </mxCell>
        <mxCell id="124" style="shape=tableRow;horizontal=0;startSize=0;swimlaneHead=0;swimlaneBody=0;top=0;left=0;bottom=0;right=0;collapsible=0;dropTarget=0;fillColor=#FAE5C7;points=[[0,0.5],[1,0.5]];portConstraint=eastwest;labelBackgroundColor=none;fontColor=#143642;strokeColor=#0F8B8D;shadow=0;rounded=1;sketch=1;curveFitting=1;jiggle=2;" parent="111" vertex="1">
          <mxGeometry y="83" width="266.57" height="28" as="geometry" />
        </mxCell>
        <mxCell id="125" style="shape=partialRectangle;html=1;whiteSpace=wrap;connectable=0;fillColor=#FAE5C7;top=0;left=0;bottom=0;right=0;overflow=hidden;labelBackgroundColor=none;strokeColor=#0F8B8D;strokeWidth=0;spacing=0;spacingTop=8;spacingLeft=8;spacingRight=8;spacingBottom=6;fontColor=#143642;shadow=0;rounded=1;sketch=1;curveFitting=1;jiggle=2;" parent="124" vertex="1">
          <mxGeometry width="44" height="28" as="geometry">
            <mxRectangle width="44" height="28" as="alternateBounds" />
          </mxGeometry>
        </mxCell>
        <mxCell id="126" value="address_street" style="shape=partialRectangle;html=1;whiteSpace=wrap;connectable=0;fillColor=#FAE5C7;top=0;left=0;bottom=0;right=0;overflow=hidden;labelBackgroundColor=none;strokeColor=#0F8B8D;strokeWidth=0;spacing=0;spacingTop=8;spacingLeft=8;spacingRight=8;spacingBottom=6;align=left;fontColor=#143642;shadow=0;rounded=1;sketch=1;curveFitting=1;jiggle=2;" parent="124" vertex="1">
          <mxGeometry x="44" width="132" height="28" as="geometry">
            <mxRectangle width="132" height="28" as="alternateBounds" />
          </mxGeometry>
        </mxCell>
        <mxCell id="127" value="VARCHAR" style="shape=partialRectangle;html=1;whiteSpace=wrap;connectable=0;fillColor=#FAE5C7;top=0;left=0;bottom=0;right=0;overflow=hidden;labelBackgroundColor=none;strokeColor=#0F8B8D;strokeWidth=0;spacing=0;spacingTop=8;spacingLeft=8;spacingRight=8;spacingBottom=6;align=left;fontColor=#143642;shadow=0;rounded=1;sketch=1;curveFitting=1;jiggle=2;" parent="124" vertex="1">
          <mxGeometry x="176" width="91" height="28" as="geometry">
            <mxRectangle width="91" height="28" as="alternateBounds" />
          </mxGeometry>
        </mxCell>
        <mxCell id="148" style="shape=tableRow;horizontal=0;startSize=0;swimlaneHead=0;swimlaneBody=0;top=0;left=0;bottom=0;right=0;collapsible=0;dropTarget=0;fillColor=#FAE5C7;points=[[0,0.5],[1,0.5]];portConstraint=eastwest;labelBackgroundColor=none;fontColor=#143642;strokeColor=#0F8B8D;shadow=0;rounded=1;sketch=1;curveFitting=1;jiggle=2;" parent="111" vertex="1">
          <mxGeometry y="111" width="266.57" height="28" as="geometry" />
        </mxCell>
        <mxCell id="149" style="shape=partialRectangle;html=1;whiteSpace=wrap;connectable=0;fillColor=#FAE5C7;top=0;left=0;bottom=0;right=0;overflow=hidden;labelBackgroundColor=none;strokeColor=#0F8B8D;strokeWidth=0;spacing=0;spacingTop=8;spacingLeft=8;spacingRight=8;spacingBottom=6;fontColor=#143642;shadow=0;rounded=1;sketch=1;curveFitting=1;jiggle=2;" parent="148" vertex="1">
          <mxGeometry width="44" height="28" as="geometry">
            <mxRectangle width="44" height="28" as="alternateBounds" />
          </mxGeometry>
        </mxCell>
        <mxCell id="150" value="address_city" style="shape=partialRectangle;html=1;whiteSpace=wrap;connectable=0;fillColor=#FAE5C7;top=0;left=0;bottom=0;right=0;overflow=hidden;labelBackgroundColor=none;strokeColor=#0F8B8D;strokeWidth=0;spacing=0;spacingTop=8;spacingLeft=8;spacingRight=8;spacingBottom=6;align=left;fontColor=#143642;shadow=0;rounded=1;sketch=1;curveFitting=1;jiggle=2;" parent="148" vertex="1">
          <mxGeometry x="44" width="132" height="28" as="geometry">
            <mxRectangle width="132" height="28" as="alternateBounds" />
          </mxGeometry>
        </mxCell>
        <mxCell id="151" value="VARCHAR" style="shape=partialRectangle;html=1;whiteSpace=wrap;connectable=0;fillColor=#FAE5C7;top=0;left=0;bottom=0;right=0;overflow=hidden;labelBackgroundColor=none;strokeColor=#0F8B8D;strokeWidth=0;spacing=0;spacingTop=8;spacingLeft=8;spacingRight=8;spacingBottom=6;align=left;fontColor=#143642;shadow=0;rounded=1;sketch=1;curveFitting=1;jiggle=2;" parent="148" vertex="1">
          <mxGeometry x="176" width="91" height="28" as="geometry">
            <mxRectangle width="91" height="28" as="alternateBounds" />
          </mxGeometry>
        </mxCell>
        <mxCell id="144" style="shape=tableRow;horizontal=0;startSize=0;swimlaneHead=0;swimlaneBody=0;top=0;left=0;bottom=0;right=0;collapsible=0;dropTarget=0;fillColor=#FAE5C7;points=[[0,0.5],[1,0.5]];portConstraint=eastwest;labelBackgroundColor=none;fontColor=#143642;strokeColor=#0F8B8D;shadow=0;rounded=1;sketch=1;curveFitting=1;jiggle=2;" parent="111" vertex="1">
          <mxGeometry y="139" width="266.57" height="28" as="geometry" />
        </mxCell>
        <mxCell id="145" style="shape=partialRectangle;html=1;whiteSpace=wrap;connectable=0;fillColor=#FAE5C7;top=0;left=0;bottom=0;right=0;overflow=hidden;labelBackgroundColor=none;strokeColor=#0F8B8D;strokeWidth=0;spacing=0;spacingTop=8;spacingLeft=8;spacingRight=8;spacingBottom=6;fontColor=#143642;shadow=0;rounded=1;sketch=1;curveFitting=1;jiggle=2;" parent="144" vertex="1">
          <mxGeometry width="44" height="28" as="geometry">
            <mxRectangle width="44" height="28" as="alternateBounds" />
          </mxGeometry>
        </mxCell>
        <mxCell id="146" value="address_state" style="shape=partialRectangle;html=1;whiteSpace=wrap;connectable=0;fillColor=#FAE5C7;top=0;left=0;bottom=0;right=0;overflow=hidden;labelBackgroundColor=none;strokeColor=#0F8B8D;strokeWidth=0;spacing=0;spacingTop=8;spacingLeft=8;spacingRight=8;spacingBottom=6;align=left;fontColor=#143642;shadow=0;rounded=1;sketch=1;curveFitting=1;jiggle=2;" parent="144" vertex="1">
          <mxGeometry x="44" width="132" height="28" as="geometry">
            <mxRectangle width="132" height="28" as="alternateBounds" />
          </mxGeometry>
        </mxCell>
        <mxCell id="147" value="VARCHAR" style="shape=partialRectangle;html=1;whiteSpace=wrap;connectable=0;fillColor=#FAE5C7;top=0;left=0;bottom=0;right=0;overflow=hidden;labelBackgroundColor=none;strokeColor=#0F8B8D;strokeWidth=0;spacing=0;spacingTop=8;spacingLeft=8;spacingRight=8;spacingBottom=6;align=left;fontColor=#143642;shadow=0;rounded=1;sketch=1;curveFitting=1;jiggle=2;" parent="144" vertex="1">
          <mxGeometry x="176" width="91" height="28" as="geometry">
            <mxRectangle width="91" height="28" as="alternateBounds" />
          </mxGeometry>
        </mxCell>
        <mxCell id="140" style="shape=tableRow;horizontal=0;startSize=0;swimlaneHead=0;swimlaneBody=0;top=0;left=0;bottom=0;right=0;collapsible=0;dropTarget=0;fillColor=#FAE5C7;points=[[0,0.5],[1,0.5]];portConstraint=eastwest;labelBackgroundColor=none;fontColor=#143642;strokeColor=#0F8B8D;shadow=0;rounded=1;sketch=1;curveFitting=1;jiggle=2;" parent="111" vertex="1">
          <mxGeometry y="167" width="266.57" height="28" as="geometry" />
        </mxCell>
        <mxCell id="141" style="shape=partialRectangle;html=1;whiteSpace=wrap;connectable=0;fillColor=#FAE5C7;top=0;left=0;bottom=0;right=0;overflow=hidden;labelBackgroundColor=none;strokeColor=#0F8B8D;strokeWidth=0;spacing=0;spacingTop=8;spacingLeft=8;spacingRight=8;spacingBottom=6;fontColor=#143642;shadow=0;rounded=1;sketch=1;curveFitting=1;jiggle=2;" parent="140" vertex="1">
          <mxGeometry width="44" height="28" as="geometry">
            <mxRectangle width="44" height="28" as="alternateBounds" />
          </mxGeometry>
        </mxCell>
        <mxCell id="142" value="address_zip" style="shape=partialRectangle;html=1;whiteSpace=wrap;connectable=0;fillColor=#FAE5C7;top=0;left=0;bottom=0;right=0;overflow=hidden;labelBackgroundColor=none;strokeColor=#0F8B8D;strokeWidth=0;spacing=0;spacingTop=8;spacingLeft=8;spacingRight=8;spacingBottom=6;align=left;fontColor=#143642;shadow=0;rounded=1;sketch=1;curveFitting=1;jiggle=2;" parent="140" vertex="1">
          <mxGeometry x="44" width="132" height="28" as="geometry">
            <mxRectangle width="132" height="28" as="alternateBounds" />
          </mxGeometry>
        </mxCell>
        <mxCell id="143" value="VARCHAR" style="shape=partialRectangle;html=1;whiteSpace=wrap;connectable=0;fillColor=#FAE5C7;top=0;left=0;bottom=0;right=0;overflow=hidden;labelBackgroundColor=none;strokeColor=#0F8B8D;strokeWidth=0;spacing=0;spacingTop=8;spacingLeft=8;spacingRight=8;spacingBottom=6;align=left;fontColor=#143642;shadow=0;rounded=1;sketch=1;curveFitting=1;jiggle=2;" parent="140" vertex="1">
          <mxGeometry x="176" width="91" height="28" as="geometry">
            <mxRectangle width="91" height="28" as="alternateBounds" />
          </mxGeometry>
        </mxCell>
        <mxCell id="136" style="shape=tableRow;horizontal=0;startSize=0;swimlaneHead=0;swimlaneBody=0;top=0;left=0;bottom=0;right=0;collapsible=0;dropTarget=0;fillColor=#FAE5C7;points=[[0,0.5],[1,0.5]];portConstraint=eastwest;labelBackgroundColor=none;fontColor=#143642;strokeColor=#0F8B8D;shadow=0;rounded=1;sketch=1;curveFitting=1;jiggle=2;" parent="111" vertex="1">
          <mxGeometry y="195" width="266.57" height="28" as="geometry" />
        </mxCell>
        <mxCell id="137" style="shape=partialRectangle;html=1;whiteSpace=wrap;connectable=0;fillColor=#FAE5C7;top=0;left=0;bottom=0;right=0;overflow=hidden;labelBackgroundColor=none;strokeColor=#0F8B8D;strokeWidth=0;spacing=0;spacingTop=8;spacingLeft=8;spacingRight=8;spacingBottom=6;fontColor=#143642;shadow=0;rounded=1;sketch=1;curveFitting=1;jiggle=2;" parent="136" vertex="1">
          <mxGeometry width="44" height="28" as="geometry">
            <mxRectangle width="44" height="28" as="alternateBounds" />
          </mxGeometry>
        </mxCell>
        <mxCell id="138" value="coordinates" style="shape=partialRectangle;html=1;whiteSpace=wrap;connectable=0;fillColor=#FAE5C7;top=0;left=0;bottom=0;right=0;overflow=hidden;labelBackgroundColor=none;strokeColor=#0F8B8D;strokeWidth=0;spacing=0;spacingTop=8;spacingLeft=8;spacingRight=8;spacingBottom=6;align=left;fontColor=#143642;shadow=0;rounded=1;sketch=1;curveFitting=1;jiggle=2;" parent="136" vertex="1">
          <mxGeometry x="44" width="132" height="28" as="geometry">
            <mxRectangle width="132" height="28" as="alternateBounds" />
          </mxGeometry>
        </mxCell>
        <mxCell id="139" value="VARCHAR" style="shape=partialRectangle;html=1;whiteSpace=wrap;connectable=0;fillColor=#FAE5C7;top=0;left=0;bottom=0;right=0;overflow=hidden;labelBackgroundColor=none;strokeColor=#0F8B8D;strokeWidth=0;spacing=0;spacingTop=8;spacingLeft=8;spacingRight=8;spacingBottom=6;align=left;fontColor=#143642;shadow=0;rounded=1;sketch=1;curveFitting=1;jiggle=2;" parent="136" vertex="1">
          <mxGeometry x="176" width="91" height="28" as="geometry">
            <mxRectangle width="91" height="28" as="alternateBounds" />
          </mxGeometry>
        </mxCell>
        <mxCell id="128" style="shape=tableRow;horizontal=0;startSize=0;swimlaneHead=0;swimlaneBody=0;top=0;left=0;bottom=0;right=0;collapsible=0;dropTarget=0;fillColor=#FAE5C7;points=[[0,0.5],[1,0.5]];portConstraint=eastwest;labelBackgroundColor=none;fontColor=#143642;strokeColor=#0F8B8D;shadow=0;rounded=1;sketch=1;curveFitting=1;jiggle=2;" parent="111" vertex="1">
          <mxGeometry y="223" width="266.57" height="27" as="geometry" />
        </mxCell>
        <mxCell id="129" style="shape=partialRectangle;html=1;whiteSpace=wrap;connectable=0;fillColor=#FAE5C7;top=0;left=0;bottom=0;right=0;overflow=hidden;labelBackgroundColor=none;strokeColor=#0F8B8D;strokeWidth=0;spacing=0;spacingTop=8;spacingLeft=8;spacingRight=8;spacingBottom=6;fontColor=#143642;shadow=0;rounded=1;sketch=1;curveFitting=1;jiggle=2;" parent="128" vertex="1">
          <mxGeometry width="44" height="27" as="geometry">
            <mxRectangle width="44" height="27" as="alternateBounds" />
          </mxGeometry>
        </mxCell>
        <mxCell id="130" value="createdAt" style="shape=partialRectangle;html=1;whiteSpace=wrap;connectable=0;fillColor=#FAE5C7;top=0;left=0;bottom=0;right=0;overflow=hidden;labelBackgroundColor=none;strokeColor=#0F8B8D;strokeWidth=0;spacing=0;spacingTop=8;spacingLeft=8;spacingRight=8;spacingBottom=6;align=left;fontColor=#143642;shadow=0;rounded=1;sketch=1;curveFitting=1;jiggle=2;" parent="128" vertex="1">
          <mxGeometry x="44" width="132" height="27" as="geometry">
            <mxRectangle width="132" height="27" as="alternateBounds" />
          </mxGeometry>
        </mxCell>
        <mxCell id="131" value="DATETIME" style="shape=partialRectangle;html=1;whiteSpace=wrap;connectable=0;fillColor=#FAE5C7;top=0;left=0;bottom=0;right=0;overflow=hidden;labelBackgroundColor=none;strokeColor=#0F8B8D;strokeWidth=0;spacing=0;spacingTop=8;spacingLeft=8;spacingRight=8;spacingBottom=6;align=left;fontColor=#143642;shadow=0;rounded=1;sketch=1;curveFitting=1;jiggle=2;" parent="128" vertex="1">
          <mxGeometry x="176" width="91" height="27" as="geometry">
            <mxRectangle width="91" height="27" as="alternateBounds" />
          </mxGeometry>
        </mxCell>
        <mxCell id="132" style="shape=tableRow;horizontal=0;startSize=0;swimlaneHead=0;swimlaneBody=0;top=0;left=0;bottom=0;right=0;collapsible=0;dropTarget=0;fillColor=#FAE5C7;points=[[0,0.5],[1,0.5]];portConstraint=eastwest;labelBackgroundColor=none;fontColor=#143642;strokeColor=#0F8B8D;shadow=0;rounded=1;sketch=1;curveFitting=1;jiggle=2;" parent="111" vertex="1">
          <mxGeometry y="250" width="266.57" height="28" as="geometry" />
        </mxCell>
        <mxCell id="133" style="shape=partialRectangle;html=1;whiteSpace=wrap;connectable=0;fillColor=#FAE5C7;top=0;left=0;bottom=0;right=0;overflow=hidden;labelBackgroundColor=none;strokeColor=#0F8B8D;strokeWidth=0;spacing=0;spacingTop=8;spacingLeft=8;spacingRight=8;spacingBottom=6;fontColor=#143642;shadow=0;rounded=1;sketch=1;curveFitting=1;jiggle=2;" parent="132" vertex="1">
          <mxGeometry width="44" height="28" as="geometry">
            <mxRectangle width="44" height="28" as="alternateBounds" />
          </mxGeometry>
        </mxCell>
        <mxCell id="134" value="updatedAt" style="shape=partialRectangle;html=1;whiteSpace=wrap;connectable=0;fillColor=#FAE5C7;top=0;left=0;bottom=0;right=0;overflow=hidden;labelBackgroundColor=none;strokeColor=#0F8B8D;strokeWidth=0;spacing=0;spacingTop=8;spacingLeft=8;spacingRight=8;spacingBottom=6;align=left;fontColor=#143642;shadow=0;rounded=1;sketch=1;curveFitting=1;jiggle=2;" parent="132" vertex="1">
          <mxGeometry x="44" width="132" height="28" as="geometry">
            <mxRectangle width="132" height="28" as="alternateBounds" />
          </mxGeometry>
        </mxCell>
        <mxCell id="135" value="DATETIME" style="shape=partialRectangle;html=1;whiteSpace=wrap;connectable=0;fillColor=#FAE5C7;top=0;left=0;bottom=0;right=0;overflow=hidden;labelBackgroundColor=none;strokeColor=#0F8B8D;strokeWidth=0;spacing=0;spacingTop=8;spacingLeft=8;spacingRight=8;spacingBottom=6;align=left;fontColor=#143642;shadow=0;rounded=1;sketch=1;curveFitting=1;jiggle=2;" parent="132" vertex="1">
          <mxGeometry x="176" width="91" height="28" as="geometry">
            <mxRectangle width="91" height="28" as="alternateBounds" />
          </mxGeometry>
        </mxCell>
        <mxCell id="152" value="Friend List" style="shape=table;startSize=30;container=1;collapsible=0;childLayout=tableLayout;fontStyle=1;align=left;labelBackgroundColor=none;spacing=6;swimlaneLine=1;fillColor=#f5f5f5;strokeColor=#666666;shadow=1;rounded=1;swimlaneFillColor=default;fontFamily=Helvetica;fontSize=12;gradientColor=#b3b3b3;fontColor=#000000;" parent="1" vertex="1">
          <mxGeometry x="153.00000000000003" y="434" width="251.54998779296875" height="180.10015869140625" as="geometry" />
        </mxCell>
        <mxCell id="153" value="" style="shape=tableRow;horizontal=0;startSize=0;swimlaneHead=0;swimlaneBody=0;top=0;left=0;bottom=0;right=0;collapsible=0;dropTarget=0;fillColor=#FAE5C7;points=[[0,0.5],[1,0.5]];portConstraint=eastwest;labelBackgroundColor=none;swimlaneLine=0;strokeColor=#0F8B8D;fontColor=#143642;shadow=0;rounded=1;sketch=1;curveFitting=1;jiggle=2;" parent="152" vertex="1">
          <mxGeometry y="30" width="251.54998779296875" height="31" as="geometry" />
        </mxCell>
        <mxCell id="154" value="PK" style="shape=partialRectangle;html=1;whiteSpace=wrap;connectable=0;fillColor=#FAE5C7;top=0;left=0;bottom=0;right=0;overflow=hidden;labelBackgroundColor=none;strokeColor=#0F8B8D;strokeWidth=0;spacing=0;spacingTop=8;spacingLeft=8;spacingRight=8;spacingBottom=6;fontColor=#143642;shadow=0;rounded=1;sketch=1;curveFitting=1;jiggle=2;" parent="153" vertex="1">
          <mxGeometry width="40" height="31" as="geometry">
            <mxRectangle width="40" height="31" as="alternateBounds" />
          </mxGeometry>
        </mxCell>
        <mxCell id="155" value="id" style="shape=partialRectangle;html=1;whiteSpace=wrap;connectable=0;fillColor=#FAE5C7;top=0;left=0;bottom=0;right=0;overflow=hidden;labelBackgroundColor=none;strokeColor=#0F8B8D;strokeWidth=0;align=left;spacing=0;spacingTop=8;spacingLeft=8;spacingRight=8;spacingBottom=6;fontColor=#143642;shadow=0;rounded=1;sketch=1;curveFitting=1;jiggle=2;" parent="153" vertex="1">
          <mxGeometry x="40" width="126" height="31" as="geometry">
            <mxRectangle width="126" height="31" as="alternateBounds" />
          </mxGeometry>
        </mxCell>
        <mxCell id="156" value="BINARY(16)" style="shape=partialRectangle;html=1;whiteSpace=wrap;connectable=0;fillColor=#FAE5C7;top=0;left=0;bottom=0;right=0;overflow=hidden;labelBackgroundColor=none;strokeColor=#0F8B8D;strokeWidth=0;align=left;spacing=0;spacingTop=8;spacingLeft=8;spacingRight=8;spacingBottom=6;fontColor=#143642;shadow=0;rounded=1;sketch=1;curveFitting=1;jiggle=2;" parent="153" vertex="1">
          <mxGeometry x="166" width="86" height="31" as="geometry">
            <mxRectangle width="86" height="31" as="alternateBounds" />
          </mxGeometry>
        </mxCell>
        <mxCell id="157" value="" style="shape=tableRow;horizontal=0;startSize=0;swimlaneHead=0;swimlaneBody=0;top=0;left=0;bottom=0;right=0;collapsible=0;dropTarget=0;fillColor=#FAE5C7;points=[[0,0.5],[1,0.5]];portConstraint=eastwest;labelBackgroundColor=none;fontColor=#143642;strokeColor=#0F8B8D;shadow=0;rounded=1;sketch=1;curveFitting=1;jiggle=2;" parent="152" vertex="1">
          <mxGeometry y="61" width="251.54998779296875" height="32" as="geometry" />
        </mxCell>
        <mxCell id="158" value="FK" style="shape=partialRectangle;html=1;whiteSpace=wrap;connectable=0;fillColor=#FAE5C7;top=0;left=0;bottom=0;right=0;overflow=hidden;labelBackgroundColor=none;strokeColor=#0F8B8D;strokeWidth=0;spacing=0;spacingTop=8;spacingLeft=8;spacingRight=8;spacingBottom=6;fontColor=#143642;shadow=0;rounded=1;sketch=1;curveFitting=1;jiggle=2;" parent="157" vertex="1">
          <mxGeometry width="40" height="32" as="geometry">
            <mxRectangle width="40" height="32" as="alternateBounds" />
          </mxGeometry>
        </mxCell>
        <mxCell id="159" value="userId" style="shape=partialRectangle;html=1;whiteSpace=wrap;connectable=0;fillColor=#FAE5C7;top=0;left=0;bottom=0;right=0;overflow=hidden;labelBackgroundColor=none;strokeColor=#0F8B8D;strokeWidth=0;spacing=0;spacingTop=8;spacingLeft=8;spacingRight=8;spacingBottom=6;align=left;fontColor=#143642;shadow=0;rounded=1;sketch=1;curveFitting=1;jiggle=2;" parent="157" vertex="1">
          <mxGeometry x="40" width="126" height="32" as="geometry">
            <mxRectangle width="126" height="32" as="alternateBounds" />
          </mxGeometry>
        </mxCell>
        <mxCell id="160" value="BINARY(16)" style="shape=partialRectangle;html=1;whiteSpace=wrap;connectable=0;fillColor=#FAE5C7;top=0;left=0;bottom=0;right=0;overflow=hidden;labelBackgroundColor=none;strokeColor=#0F8B8D;strokeWidth=0;spacing=0;spacingTop=8;spacingLeft=8;spacingRight=8;spacingBottom=6;align=left;fontColor=#143642;shadow=0;rounded=1;sketch=1;curveFitting=1;jiggle=2;" parent="157" vertex="1">
          <mxGeometry x="166" width="86" height="32" as="geometry">
            <mxRectangle width="86" height="32" as="alternateBounds" />
          </mxGeometry>
        </mxCell>
        <mxCell id="XUXtn4tgAi1DHnVcITGY-281" style="shape=tableRow;horizontal=0;startSize=0;swimlaneHead=0;swimlaneBody=0;top=0;left=0;bottom=0;right=0;collapsible=0;dropTarget=0;fillColor=#FAE5C7;points=[[0,0.5],[1,0.5]];portConstraint=eastwest;labelBackgroundColor=none;fontColor=#143642;strokeColor=#0F8B8D;shadow=0;rounded=1;sketch=1;curveFitting=1;jiggle=2;" vertex="1" parent="152">
          <mxGeometry y="93" width="251.54998779296875" height="32" as="geometry" />
        </mxCell>
        <mxCell id="XUXtn4tgAi1DHnVcITGY-282" value="FK" style="shape=partialRectangle;html=1;whiteSpace=wrap;connectable=0;fillColor=#FAE5C7;top=0;left=0;bottom=0;right=0;overflow=hidden;labelBackgroundColor=none;strokeColor=#0F8B8D;strokeWidth=0;spacing=0;spacingTop=8;spacingLeft=8;spacingRight=8;spacingBottom=6;fontColor=#143642;shadow=0;rounded=1;sketch=1;curveFitting=1;jiggle=2;" vertex="1" parent="XUXtn4tgAi1DHnVcITGY-281">
          <mxGeometry width="40" height="32" as="geometry">
            <mxRectangle width="40" height="32" as="alternateBounds" />
          </mxGeometry>
        </mxCell>
        <mxCell id="XUXtn4tgAi1DHnVcITGY-283" value="friends[friend_id]" style="shape=partialRectangle;html=1;whiteSpace=wrap;connectable=0;fillColor=#FAE5C7;top=0;left=0;bottom=0;right=0;overflow=hidden;labelBackgroundColor=none;strokeColor=#0F8B8D;strokeWidth=0;spacing=0;spacingTop=8;spacingLeft=8;spacingRight=8;spacingBottom=6;align=left;fontColor=#143642;shadow=0;rounded=1;sketch=1;curveFitting=1;jiggle=2;" vertex="1" parent="XUXtn4tgAi1DHnVcITGY-281">
          <mxGeometry x="40" width="126" height="32" as="geometry">
            <mxRectangle width="126" height="32" as="alternateBounds" />
          </mxGeometry>
        </mxCell>
        <mxCell id="XUXtn4tgAi1DHnVcITGY-284" value="BINARY(16)" style="shape=partialRectangle;html=1;whiteSpace=wrap;connectable=0;fillColor=#FAE5C7;top=0;left=0;bottom=0;right=0;overflow=hidden;labelBackgroundColor=none;strokeColor=#0F8B8D;strokeWidth=0;spacing=0;spacingTop=8;spacingLeft=8;spacingRight=8;spacingBottom=6;align=left;fontColor=#143642;shadow=0;rounded=1;sketch=1;curveFitting=1;jiggle=2;" vertex="1" parent="XUXtn4tgAi1DHnVcITGY-281">
          <mxGeometry x="166" width="86" height="32" as="geometry">
            <mxRectangle width="86" height="32" as="alternateBounds" />
          </mxGeometry>
        </mxCell>
        <mxCell id="169" style="shape=tableRow;horizontal=0;startSize=0;swimlaneHead=0;swimlaneBody=0;top=0;left=0;bottom=0;right=0;collapsible=0;dropTarget=0;fillColor=#FAE5C7;points=[[0,0.5],[1,0.5]];portConstraint=eastwest;labelBackgroundColor=none;fontColor=#143642;strokeColor=#0F8B8D;shadow=0;rounded=1;sketch=1;curveFitting=1;jiggle=2;" parent="152" vertex="1">
          <mxGeometry y="125" width="251.54998779296875" height="27" as="geometry" />
        </mxCell>
        <mxCell id="170" style="shape=partialRectangle;html=1;whiteSpace=wrap;connectable=0;fillColor=#FAE5C7;top=0;left=0;bottom=0;right=0;overflow=hidden;labelBackgroundColor=none;strokeColor=#0F8B8D;strokeWidth=0;spacing=0;spacingTop=8;spacingLeft=8;spacingRight=8;spacingBottom=6;fontColor=#143642;shadow=0;rounded=1;sketch=1;curveFitting=1;jiggle=2;" parent="169" vertex="1">
          <mxGeometry width="40" height="27" as="geometry">
            <mxRectangle width="40" height="27" as="alternateBounds" />
          </mxGeometry>
        </mxCell>
        <mxCell id="171" value="createdAt" style="shape=partialRectangle;html=1;whiteSpace=wrap;connectable=0;fillColor=#FAE5C7;top=0;left=0;bottom=0;right=0;overflow=hidden;labelBackgroundColor=none;strokeColor=#0F8B8D;strokeWidth=0;spacing=0;spacingTop=8;spacingLeft=8;spacingRight=8;spacingBottom=6;align=left;fontColor=#143642;shadow=0;rounded=1;sketch=1;curveFitting=1;jiggle=2;" parent="169" vertex="1">
          <mxGeometry x="40" width="126" height="27" as="geometry">
            <mxRectangle width="126" height="27" as="alternateBounds" />
          </mxGeometry>
        </mxCell>
        <mxCell id="172" value="DATETIME" style="shape=partialRectangle;html=1;whiteSpace=wrap;connectable=0;fillColor=#FAE5C7;top=0;left=0;bottom=0;right=0;overflow=hidden;labelBackgroundColor=none;strokeColor=#0F8B8D;strokeWidth=0;spacing=0;spacingTop=8;spacingLeft=8;spacingRight=8;spacingBottom=6;align=left;fontColor=#143642;shadow=0;rounded=1;sketch=1;curveFitting=1;jiggle=2;" parent="169" vertex="1">
          <mxGeometry x="166" width="86" height="27" as="geometry">
            <mxRectangle width="86" height="27" as="alternateBounds" />
          </mxGeometry>
        </mxCell>
        <mxCell id="173" style="shape=tableRow;horizontal=0;startSize=0;swimlaneHead=0;swimlaneBody=0;top=0;left=0;bottom=0;right=0;collapsible=0;dropTarget=0;fillColor=#FAE5C7;points=[[0,0.5],[1,0.5]];portConstraint=eastwest;labelBackgroundColor=none;fontColor=#143642;strokeColor=#0F8B8D;shadow=0;rounded=1;sketch=1;curveFitting=1;jiggle=2;" parent="152" vertex="1">
          <mxGeometry y="152" width="251.54998779296875" height="28" as="geometry" />
        </mxCell>
        <mxCell id="174" style="shape=partialRectangle;html=1;whiteSpace=wrap;connectable=0;fillColor=#FAE5C7;top=0;left=0;bottom=0;right=0;overflow=hidden;labelBackgroundColor=none;strokeColor=#0F8B8D;strokeWidth=0;spacing=0;spacingTop=8;spacingLeft=8;spacingRight=8;spacingBottom=6;fontColor=#143642;shadow=0;rounded=1;sketch=1;curveFitting=1;jiggle=2;" parent="173" vertex="1">
          <mxGeometry width="40" height="28" as="geometry">
            <mxRectangle width="40" height="28" as="alternateBounds" />
          </mxGeometry>
        </mxCell>
        <mxCell id="175" value="updatedAt" style="shape=partialRectangle;html=1;whiteSpace=wrap;connectable=0;fillColor=#FAE5C7;top=0;left=0;bottom=0;right=0;overflow=hidden;labelBackgroundColor=none;strokeColor=#0F8B8D;strokeWidth=0;spacing=0;spacingTop=8;spacingLeft=8;spacingRight=8;spacingBottom=6;align=left;fontColor=#143642;shadow=0;rounded=1;sketch=1;curveFitting=1;jiggle=2;" parent="173" vertex="1">
          <mxGeometry x="40" width="126" height="28" as="geometry">
            <mxRectangle width="126" height="28" as="alternateBounds" />
          </mxGeometry>
        </mxCell>
        <mxCell id="176" value="DATETIME" style="shape=partialRectangle;html=1;whiteSpace=wrap;connectable=0;fillColor=#FAE5C7;top=0;left=0;bottom=0;right=0;overflow=hidden;labelBackgroundColor=none;strokeColor=#0F8B8D;strokeWidth=0;spacing=0;spacingTop=8;spacingLeft=8;spacingRight=8;spacingBottom=6;align=left;fontColor=#143642;shadow=0;rounded=1;sketch=1;curveFitting=1;jiggle=2;" parent="173" vertex="1">
          <mxGeometry x="166" width="86" height="28" as="geometry">
            <mxRectangle width="86" height="28" as="alternateBounds" />
          </mxGeometry>
        </mxCell>
        <mxCell id="206" style="edgeStyle=none;html=1;exitX=0;exitY=0.5;exitDx=0;exitDy=0;entryX=0;entryY=0.5;entryDx=0;entryDy=0;strokeColor=#A8201A;shadow=0;labelBackgroundColor=none;fontColor=default;sketch=1;curveFitting=1;jiggle=2;fillColor=#FAE5C7;curved=1;" parent="1" source="157" target="21" edge="1">
          <mxGeometry relative="1" as="geometry">
            <Array as="points">
              <mxPoint x="90" y="438" />
              <mxPoint x="78" y="320" />
              <mxPoint x="116" y="217" />
            </Array>
          </mxGeometry>
        </mxCell>
        <mxCell id="XUXtn4tgAi1DHnVcITGY-224" value="Meeting Location (Format Unknown)" style="shape=table;startSize=30;container=1;collapsible=0;childLayout=tableLayout;fontStyle=1;align=left;labelBackgroundColor=none;spacing=6;swimlaneLine=1;fillColor=#f5f5f5;strokeColor=#666666;shadow=1;rounded=1;swimlaneFillColor=default;fontFamily=Helvetica;fontSize=12;gradientColor=#b3b3b3;fontColor=#000000;" vertex="1" parent="1">
          <mxGeometry x="774" y="61" width="240" height="278" as="geometry" />
        </mxCell>
        <mxCell id="XUXtn4tgAi1DHnVcITGY-225" value="" style="shape=tableRow;horizontal=0;startSize=0;swimlaneHead=0;swimlaneBody=0;top=0;left=0;bottom=0;right=0;collapsible=0;dropTarget=0;fillColor=#FAE5C7;points=[[0,0.5],[1,0.5]];portConstraint=eastwest;labelBackgroundColor=none;swimlaneLine=0;strokeColor=#0F8B8D;fontColor=#143642;shadow=0;rounded=1;sketch=1;curveFitting=1;jiggle=2;" vertex="1" parent="XUXtn4tgAi1DHnVcITGY-224">
          <mxGeometry y="30" width="240" height="26" as="geometry" />
        </mxCell>
        <mxCell id="XUXtn4tgAi1DHnVcITGY-226" value="PK" style="shape=partialRectangle;html=1;whiteSpace=wrap;connectable=0;fillColor=#FAE5C7;top=0;left=0;bottom=0;right=0;overflow=hidden;labelBackgroundColor=none;strokeColor=#0F8B8D;strokeWidth=0;spacing=0;spacingTop=8;spacingLeft=8;spacingRight=8;spacingBottom=6;fontColor=#143642;shadow=0;rounded=1;sketch=1;curveFitting=1;jiggle=2;" vertex="1" parent="XUXtn4tgAi1DHnVcITGY-225">
          <mxGeometry width="40" height="26" as="geometry">
            <mxRectangle width="40" height="26" as="alternateBounds" />
          </mxGeometry>
        </mxCell>
        <mxCell id="XUXtn4tgAi1DHnVcITGY-227" value="id" style="shape=partialRectangle;html=1;whiteSpace=wrap;connectable=0;fillColor=#FAE5C7;top=0;left=0;bottom=0;right=0;overflow=hidden;labelBackgroundColor=none;strokeColor=#0F8B8D;strokeWidth=0;align=left;spacing=0;spacingTop=8;spacingLeft=8;spacingRight=8;spacingBottom=6;fontColor=#143642;shadow=0;rounded=1;sketch=1;curveFitting=1;jiggle=2;" vertex="1" parent="XUXtn4tgAi1DHnVcITGY-225">
          <mxGeometry x="40" width="110" height="26" as="geometry">
            <mxRectangle width="110" height="26" as="alternateBounds" />
          </mxGeometry>
        </mxCell>
        <mxCell id="XUXtn4tgAi1DHnVcITGY-228" value="BINARY(16)" style="shape=partialRectangle;html=1;whiteSpace=wrap;connectable=0;fillColor=#FAE5C7;top=0;left=0;bottom=0;right=0;overflow=hidden;labelBackgroundColor=none;strokeColor=#0F8B8D;strokeWidth=0;align=left;spacing=0;spacingTop=8;spacingLeft=8;spacingRight=8;spacingBottom=6;fontColor=#143642;shadow=0;rounded=1;sketch=1;curveFitting=1;jiggle=2;" vertex="1" parent="XUXtn4tgAi1DHnVcITGY-225">
          <mxGeometry x="150" width="90" height="26" as="geometry">
            <mxRectangle width="90" height="26" as="alternateBounds" />
          </mxGeometry>
        </mxCell>
        <mxCell id="XUXtn4tgAi1DHnVcITGY-233" style="shape=tableRow;horizontal=0;startSize=0;swimlaneHead=0;swimlaneBody=0;top=0;left=0;bottom=0;right=0;collapsible=0;dropTarget=0;fillColor=#FAE5C7;points=[[0,0.5],[1,0.5]];portConstraint=eastwest;labelBackgroundColor=none;fontColor=#143642;strokeColor=#0F8B8D;shadow=0;rounded=1;sketch=1;curveFitting=1;jiggle=2;" vertex="1" parent="XUXtn4tgAi1DHnVcITGY-224">
          <mxGeometry y="56" width="240" height="27" as="geometry" />
        </mxCell>
        <mxCell id="XUXtn4tgAi1DHnVcITGY-234" value="" style="shape=partialRectangle;html=1;whiteSpace=wrap;connectable=0;fillColor=#FAE5C7;top=0;left=0;bottom=0;right=0;overflow=hidden;labelBackgroundColor=none;strokeColor=#0F8B8D;strokeWidth=0;spacing=0;spacingTop=8;spacingLeft=8;spacingRight=8;spacingBottom=6;fontColor=#143642;shadow=0;rounded=1;sketch=1;curveFitting=1;jiggle=2;" vertex="1" parent="XUXtn4tgAi1DHnVcITGY-233">
          <mxGeometry width="40" height="27" as="geometry">
            <mxRectangle width="40" height="27" as="alternateBounds" />
          </mxGeometry>
        </mxCell>
        <mxCell id="XUXtn4tgAi1DHnVcITGY-235" value="name" style="shape=partialRectangle;html=1;whiteSpace=wrap;connectable=0;fillColor=#FAE5C7;top=0;left=0;bottom=0;right=0;overflow=hidden;labelBackgroundColor=none;strokeColor=#0F8B8D;strokeWidth=0;spacing=0;spacingTop=8;spacingLeft=8;spacingRight=8;spacingBottom=6;align=left;fontColor=#143642;shadow=0;rounded=1;sketch=1;curveFitting=1;jiggle=2;" vertex="1" parent="XUXtn4tgAi1DHnVcITGY-233">
          <mxGeometry x="40" width="110" height="27" as="geometry">
            <mxRectangle width="110" height="27" as="alternateBounds" />
          </mxGeometry>
        </mxCell>
        <mxCell id="XUXtn4tgAi1DHnVcITGY-236" value="VARCHAR" style="shape=partialRectangle;html=1;whiteSpace=wrap;connectable=0;fillColor=#FAE5C7;top=0;left=0;bottom=0;right=0;overflow=hidden;labelBackgroundColor=none;strokeColor=#0F8B8D;strokeWidth=0;spacing=0;spacingTop=8;spacingLeft=8;spacingRight=8;spacingBottom=6;align=left;fontColor=#143642;shadow=0;rounded=1;sketch=1;curveFitting=1;jiggle=2;" vertex="1" parent="XUXtn4tgAi1DHnVcITGY-233">
          <mxGeometry x="150" width="90" height="27" as="geometry">
            <mxRectangle width="90" height="27" as="alternateBounds" />
          </mxGeometry>
        </mxCell>
        <mxCell id="XUXtn4tgAi1DHnVcITGY-237" style="shape=tableRow;horizontal=0;startSize=0;swimlaneHead=0;swimlaneBody=0;top=0;left=0;bottom=0;right=0;collapsible=0;dropTarget=0;fillColor=#FAE5C7;points=[[0,0.5],[1,0.5]];portConstraint=eastwest;labelBackgroundColor=none;fontColor=#143642;strokeColor=#0F8B8D;shadow=0;rounded=1;sketch=1;curveFitting=1;jiggle=2;" vertex="1" parent="XUXtn4tgAi1DHnVcITGY-224">
          <mxGeometry y="83" width="240" height="28" as="geometry" />
        </mxCell>
        <mxCell id="XUXtn4tgAi1DHnVcITGY-238" style="shape=partialRectangle;html=1;whiteSpace=wrap;connectable=0;fillColor=#FAE5C7;top=0;left=0;bottom=0;right=0;overflow=hidden;labelBackgroundColor=none;strokeColor=#0F8B8D;strokeWidth=0;spacing=0;spacingTop=8;spacingLeft=8;spacingRight=8;spacingBottom=6;fontColor=#143642;shadow=0;rounded=1;sketch=1;curveFitting=1;jiggle=2;" vertex="1" parent="XUXtn4tgAi1DHnVcITGY-237">
          <mxGeometry width="40" height="28" as="geometry">
            <mxRectangle width="40" height="28" as="alternateBounds" />
          </mxGeometry>
        </mxCell>
        <mxCell id="XUXtn4tgAi1DHnVcITGY-239" value="address_street" style="shape=partialRectangle;html=1;whiteSpace=wrap;connectable=0;fillColor=#FAE5C7;top=0;left=0;bottom=0;right=0;overflow=hidden;labelBackgroundColor=none;strokeColor=#0F8B8D;strokeWidth=0;spacing=0;spacingTop=8;spacingLeft=8;spacingRight=8;spacingBottom=6;align=left;fontColor=#143642;shadow=0;rounded=1;sketch=1;curveFitting=1;jiggle=2;" vertex="1" parent="XUXtn4tgAi1DHnVcITGY-237">
          <mxGeometry x="40" width="110" height="28" as="geometry">
            <mxRectangle width="110" height="28" as="alternateBounds" />
          </mxGeometry>
        </mxCell>
        <mxCell id="XUXtn4tgAi1DHnVcITGY-240" value="VARCHAR" style="shape=partialRectangle;html=1;whiteSpace=wrap;connectable=0;fillColor=#FAE5C7;top=0;left=0;bottom=0;right=0;overflow=hidden;labelBackgroundColor=none;strokeColor=#0F8B8D;strokeWidth=0;spacing=0;spacingTop=8;spacingLeft=8;spacingRight=8;spacingBottom=6;align=left;fontColor=#143642;shadow=0;rounded=1;sketch=1;curveFitting=1;jiggle=2;" vertex="1" parent="XUXtn4tgAi1DHnVcITGY-237">
          <mxGeometry x="150" width="90" height="28" as="geometry">
            <mxRectangle width="90" height="28" as="alternateBounds" />
          </mxGeometry>
        </mxCell>
        <mxCell id="XUXtn4tgAi1DHnVcITGY-241" style="shape=tableRow;horizontal=0;startSize=0;swimlaneHead=0;swimlaneBody=0;top=0;left=0;bottom=0;right=0;collapsible=0;dropTarget=0;fillColor=#FAE5C7;points=[[0,0.5],[1,0.5]];portConstraint=eastwest;labelBackgroundColor=none;fontColor=#143642;strokeColor=#0F8B8D;shadow=0;rounded=1;sketch=1;curveFitting=1;jiggle=2;" vertex="1" parent="XUXtn4tgAi1DHnVcITGY-224">
          <mxGeometry y="111" width="240" height="28" as="geometry" />
        </mxCell>
        <mxCell id="XUXtn4tgAi1DHnVcITGY-242" style="shape=partialRectangle;html=1;whiteSpace=wrap;connectable=0;fillColor=#FAE5C7;top=0;left=0;bottom=0;right=0;overflow=hidden;labelBackgroundColor=none;strokeColor=#0F8B8D;strokeWidth=0;spacing=0;spacingTop=8;spacingLeft=8;spacingRight=8;spacingBottom=6;fontColor=#143642;shadow=0;rounded=1;sketch=1;curveFitting=1;jiggle=2;" vertex="1" parent="XUXtn4tgAi1DHnVcITGY-241">
          <mxGeometry width="40" height="28" as="geometry">
            <mxRectangle width="40" height="28" as="alternateBounds" />
          </mxGeometry>
        </mxCell>
        <mxCell id="XUXtn4tgAi1DHnVcITGY-243" value="address_city" style="shape=partialRectangle;html=1;whiteSpace=wrap;connectable=0;fillColor=#FAE5C7;top=0;left=0;bottom=0;right=0;overflow=hidden;labelBackgroundColor=none;strokeColor=#0F8B8D;strokeWidth=0;spacing=0;spacingTop=8;spacingLeft=8;spacingRight=8;spacingBottom=6;align=left;fontColor=#143642;shadow=0;rounded=1;sketch=1;curveFitting=1;jiggle=2;" vertex="1" parent="XUXtn4tgAi1DHnVcITGY-241">
          <mxGeometry x="40" width="110" height="28" as="geometry">
            <mxRectangle width="110" height="28" as="alternateBounds" />
          </mxGeometry>
        </mxCell>
        <mxCell id="XUXtn4tgAi1DHnVcITGY-244" value="VARCHAR" style="shape=partialRectangle;html=1;whiteSpace=wrap;connectable=0;fillColor=#FAE5C7;top=0;left=0;bottom=0;right=0;overflow=hidden;labelBackgroundColor=none;strokeColor=#0F8B8D;strokeWidth=0;spacing=0;spacingTop=8;spacingLeft=8;spacingRight=8;spacingBottom=6;align=left;fontColor=#143642;shadow=0;rounded=1;sketch=1;curveFitting=1;jiggle=2;" vertex="1" parent="XUXtn4tgAi1DHnVcITGY-241">
          <mxGeometry x="150" width="90" height="28" as="geometry">
            <mxRectangle width="90" height="28" as="alternateBounds" />
          </mxGeometry>
        </mxCell>
        <mxCell id="XUXtn4tgAi1DHnVcITGY-245" style="shape=tableRow;horizontal=0;startSize=0;swimlaneHead=0;swimlaneBody=0;top=0;left=0;bottom=0;right=0;collapsible=0;dropTarget=0;fillColor=#FAE5C7;points=[[0,0.5],[1,0.5]];portConstraint=eastwest;labelBackgroundColor=none;fontColor=#143642;strokeColor=#0F8B8D;shadow=0;rounded=1;sketch=1;curveFitting=1;jiggle=2;" vertex="1" parent="XUXtn4tgAi1DHnVcITGY-224">
          <mxGeometry y="139" width="240" height="28" as="geometry" />
        </mxCell>
        <mxCell id="XUXtn4tgAi1DHnVcITGY-246" style="shape=partialRectangle;html=1;whiteSpace=wrap;connectable=0;fillColor=#FAE5C7;top=0;left=0;bottom=0;right=0;overflow=hidden;labelBackgroundColor=none;strokeColor=#0F8B8D;strokeWidth=0;spacing=0;spacingTop=8;spacingLeft=8;spacingRight=8;spacingBottom=6;fontColor=#143642;shadow=0;rounded=1;sketch=1;curveFitting=1;jiggle=2;" vertex="1" parent="XUXtn4tgAi1DHnVcITGY-245">
          <mxGeometry width="40" height="28" as="geometry">
            <mxRectangle width="40" height="28" as="alternateBounds" />
          </mxGeometry>
        </mxCell>
        <mxCell id="XUXtn4tgAi1DHnVcITGY-247" value="address_state" style="shape=partialRectangle;html=1;whiteSpace=wrap;connectable=0;fillColor=#FAE5C7;top=0;left=0;bottom=0;right=0;overflow=hidden;labelBackgroundColor=none;strokeColor=#0F8B8D;strokeWidth=0;spacing=0;spacingTop=8;spacingLeft=8;spacingRight=8;spacingBottom=6;align=left;fontColor=#143642;shadow=0;rounded=1;sketch=1;curveFitting=1;jiggle=2;" vertex="1" parent="XUXtn4tgAi1DHnVcITGY-245">
          <mxGeometry x="40" width="110" height="28" as="geometry">
            <mxRectangle width="110" height="28" as="alternateBounds" />
          </mxGeometry>
        </mxCell>
        <mxCell id="XUXtn4tgAi1DHnVcITGY-248" value="VARCHAR" style="shape=partialRectangle;html=1;whiteSpace=wrap;connectable=0;fillColor=#FAE5C7;top=0;left=0;bottom=0;right=0;overflow=hidden;labelBackgroundColor=none;strokeColor=#0F8B8D;strokeWidth=0;spacing=0;spacingTop=8;spacingLeft=8;spacingRight=8;spacingBottom=6;align=left;fontColor=#143642;shadow=0;rounded=1;sketch=1;curveFitting=1;jiggle=2;" vertex="1" parent="XUXtn4tgAi1DHnVcITGY-245">
          <mxGeometry x="150" width="90" height="28" as="geometry">
            <mxRectangle width="90" height="28" as="alternateBounds" />
          </mxGeometry>
        </mxCell>
        <mxCell id="XUXtn4tgAi1DHnVcITGY-249" style="shape=tableRow;horizontal=0;startSize=0;swimlaneHead=0;swimlaneBody=0;top=0;left=0;bottom=0;right=0;collapsible=0;dropTarget=0;fillColor=#FAE5C7;points=[[0,0.5],[1,0.5]];portConstraint=eastwest;labelBackgroundColor=none;fontColor=#143642;strokeColor=#0F8B8D;shadow=0;rounded=1;sketch=1;curveFitting=1;jiggle=2;" vertex="1" parent="XUXtn4tgAi1DHnVcITGY-224">
          <mxGeometry y="167" width="240" height="28" as="geometry" />
        </mxCell>
        <mxCell id="XUXtn4tgAi1DHnVcITGY-250" style="shape=partialRectangle;html=1;whiteSpace=wrap;connectable=0;fillColor=#FAE5C7;top=0;left=0;bottom=0;right=0;overflow=hidden;labelBackgroundColor=none;strokeColor=#0F8B8D;strokeWidth=0;spacing=0;spacingTop=8;spacingLeft=8;spacingRight=8;spacingBottom=6;fontColor=#143642;shadow=0;rounded=1;sketch=1;curveFitting=1;jiggle=2;" vertex="1" parent="XUXtn4tgAi1DHnVcITGY-249">
          <mxGeometry width="40" height="28" as="geometry">
            <mxRectangle width="40" height="28" as="alternateBounds" />
          </mxGeometry>
        </mxCell>
        <mxCell id="XUXtn4tgAi1DHnVcITGY-251" value="address_zip" style="shape=partialRectangle;html=1;whiteSpace=wrap;connectable=0;fillColor=#FAE5C7;top=0;left=0;bottom=0;right=0;overflow=hidden;labelBackgroundColor=none;strokeColor=#0F8B8D;strokeWidth=0;spacing=0;spacingTop=8;spacingLeft=8;spacingRight=8;spacingBottom=6;align=left;fontColor=#143642;shadow=0;rounded=1;sketch=1;curveFitting=1;jiggle=2;" vertex="1" parent="XUXtn4tgAi1DHnVcITGY-249">
          <mxGeometry x="40" width="110" height="28" as="geometry">
            <mxRectangle width="110" height="28" as="alternateBounds" />
          </mxGeometry>
        </mxCell>
        <mxCell id="XUXtn4tgAi1DHnVcITGY-252" value="VARCHAR" style="shape=partialRectangle;html=1;whiteSpace=wrap;connectable=0;fillColor=#FAE5C7;top=0;left=0;bottom=0;right=0;overflow=hidden;labelBackgroundColor=none;strokeColor=#0F8B8D;strokeWidth=0;spacing=0;spacingTop=8;spacingLeft=8;spacingRight=8;spacingBottom=6;align=left;fontColor=#143642;shadow=0;rounded=1;sketch=1;curveFitting=1;jiggle=2;" vertex="1" parent="XUXtn4tgAi1DHnVcITGY-249">
          <mxGeometry x="150" width="90" height="28" as="geometry">
            <mxRectangle width="90" height="28" as="alternateBounds" />
          </mxGeometry>
        </mxCell>
        <mxCell id="XUXtn4tgAi1DHnVcITGY-253" style="shape=tableRow;horizontal=0;startSize=0;swimlaneHead=0;swimlaneBody=0;top=0;left=0;bottom=0;right=0;collapsible=0;dropTarget=0;fillColor=#FAE5C7;points=[[0,0.5],[1,0.5]];portConstraint=eastwest;labelBackgroundColor=none;fontColor=#143642;strokeColor=#0F8B8D;shadow=0;rounded=1;sketch=1;curveFitting=1;jiggle=2;" vertex="1" parent="XUXtn4tgAi1DHnVcITGY-224">
          <mxGeometry y="195" width="240" height="28" as="geometry" />
        </mxCell>
        <mxCell id="XUXtn4tgAi1DHnVcITGY-254" style="shape=partialRectangle;html=1;whiteSpace=wrap;connectable=0;fillColor=#FAE5C7;top=0;left=0;bottom=0;right=0;overflow=hidden;labelBackgroundColor=none;strokeColor=#0F8B8D;strokeWidth=0;spacing=0;spacingTop=8;spacingLeft=8;spacingRight=8;spacingBottom=6;fontColor=#143642;shadow=0;rounded=1;sketch=1;curveFitting=1;jiggle=2;" vertex="1" parent="XUXtn4tgAi1DHnVcITGY-253">
          <mxGeometry width="40" height="28" as="geometry">
            <mxRectangle width="40" height="28" as="alternateBounds" />
          </mxGeometry>
        </mxCell>
        <mxCell id="XUXtn4tgAi1DHnVcITGY-255" value="coordinates" style="shape=partialRectangle;html=1;whiteSpace=wrap;connectable=0;fillColor=#FAE5C7;top=0;left=0;bottom=0;right=0;overflow=hidden;labelBackgroundColor=none;strokeColor=#0F8B8D;strokeWidth=0;spacing=0;spacingTop=8;spacingLeft=8;spacingRight=8;spacingBottom=6;align=left;fontColor=#143642;shadow=0;rounded=1;sketch=1;curveFitting=1;jiggle=2;" vertex="1" parent="XUXtn4tgAi1DHnVcITGY-253">
          <mxGeometry x="40" width="110" height="28" as="geometry">
            <mxRectangle width="110" height="28" as="alternateBounds" />
          </mxGeometry>
        </mxCell>
        <mxCell id="XUXtn4tgAi1DHnVcITGY-256" value="VARCHAR" style="shape=partialRectangle;html=1;whiteSpace=wrap;connectable=0;fillColor=#FAE5C7;top=0;left=0;bottom=0;right=0;overflow=hidden;labelBackgroundColor=none;strokeColor=#0F8B8D;strokeWidth=0;spacing=0;spacingTop=8;spacingLeft=8;spacingRight=8;spacingBottom=6;align=left;fontColor=#143642;shadow=0;rounded=1;sketch=1;curveFitting=1;jiggle=2;" vertex="1" parent="XUXtn4tgAi1DHnVcITGY-253">
          <mxGeometry x="150" width="90" height="28" as="geometry">
            <mxRectangle width="90" height="28" as="alternateBounds" />
          </mxGeometry>
        </mxCell>
        <mxCell id="XUXtn4tgAi1DHnVcITGY-257" style="shape=tableRow;horizontal=0;startSize=0;swimlaneHead=0;swimlaneBody=0;top=0;left=0;bottom=0;right=0;collapsible=0;dropTarget=0;fillColor=#FAE5C7;points=[[0,0.5],[1,0.5]];portConstraint=eastwest;labelBackgroundColor=none;fontColor=#143642;strokeColor=#0F8B8D;shadow=0;rounded=1;sketch=1;curveFitting=1;jiggle=2;" vertex="1" parent="XUXtn4tgAi1DHnVcITGY-224">
          <mxGeometry y="223" width="240" height="27" as="geometry" />
        </mxCell>
        <mxCell id="XUXtn4tgAi1DHnVcITGY-258" style="shape=partialRectangle;html=1;whiteSpace=wrap;connectable=0;fillColor=#FAE5C7;top=0;left=0;bottom=0;right=0;overflow=hidden;labelBackgroundColor=none;strokeColor=#0F8B8D;strokeWidth=0;spacing=0;spacingTop=8;spacingLeft=8;spacingRight=8;spacingBottom=6;fontColor=#143642;shadow=0;rounded=1;sketch=1;curveFitting=1;jiggle=2;" vertex="1" parent="XUXtn4tgAi1DHnVcITGY-257">
          <mxGeometry width="40" height="27" as="geometry">
            <mxRectangle width="40" height="27" as="alternateBounds" />
          </mxGeometry>
        </mxCell>
        <mxCell id="XUXtn4tgAi1DHnVcITGY-259" value="createdAt" style="shape=partialRectangle;html=1;whiteSpace=wrap;connectable=0;fillColor=#FAE5C7;top=0;left=0;bottom=0;right=0;overflow=hidden;labelBackgroundColor=none;strokeColor=#0F8B8D;strokeWidth=0;spacing=0;spacingTop=8;spacingLeft=8;spacingRight=8;spacingBottom=6;align=left;fontColor=#143642;shadow=0;rounded=1;sketch=1;curveFitting=1;jiggle=2;" vertex="1" parent="XUXtn4tgAi1DHnVcITGY-257">
          <mxGeometry x="40" width="110" height="27" as="geometry">
            <mxRectangle width="110" height="27" as="alternateBounds" />
          </mxGeometry>
        </mxCell>
        <mxCell id="XUXtn4tgAi1DHnVcITGY-260" value="DATETIME" style="shape=partialRectangle;html=1;whiteSpace=wrap;connectable=0;fillColor=#FAE5C7;top=0;left=0;bottom=0;right=0;overflow=hidden;labelBackgroundColor=none;strokeColor=#0F8B8D;strokeWidth=0;spacing=0;spacingTop=8;spacingLeft=8;spacingRight=8;spacingBottom=6;align=left;fontColor=#143642;shadow=0;rounded=1;sketch=1;curveFitting=1;jiggle=2;" vertex="1" parent="XUXtn4tgAi1DHnVcITGY-257">
          <mxGeometry x="150" width="90" height="27" as="geometry">
            <mxRectangle width="90" height="27" as="alternateBounds" />
          </mxGeometry>
        </mxCell>
        <mxCell id="XUXtn4tgAi1DHnVcITGY-261" style="shape=tableRow;horizontal=0;startSize=0;swimlaneHead=0;swimlaneBody=0;top=0;left=0;bottom=0;right=0;collapsible=0;dropTarget=0;fillColor=#FAE5C7;points=[[0,0.5],[1,0.5]];portConstraint=eastwest;labelBackgroundColor=none;fontColor=#143642;strokeColor=#0F8B8D;shadow=0;rounded=1;sketch=1;curveFitting=1;jiggle=2;" vertex="1" parent="XUXtn4tgAi1DHnVcITGY-224">
          <mxGeometry y="250" width="240" height="28" as="geometry" />
        </mxCell>
        <mxCell id="XUXtn4tgAi1DHnVcITGY-262" style="shape=partialRectangle;html=1;whiteSpace=wrap;connectable=0;fillColor=#FAE5C7;top=0;left=0;bottom=0;right=0;overflow=hidden;labelBackgroundColor=none;strokeColor=#0F8B8D;strokeWidth=0;spacing=0;spacingTop=8;spacingLeft=8;spacingRight=8;spacingBottom=6;fontColor=#143642;shadow=0;rounded=1;sketch=1;curveFitting=1;jiggle=2;" vertex="1" parent="XUXtn4tgAi1DHnVcITGY-261">
          <mxGeometry width="40" height="28" as="geometry">
            <mxRectangle width="40" height="28" as="alternateBounds" />
          </mxGeometry>
        </mxCell>
        <mxCell id="XUXtn4tgAi1DHnVcITGY-263" value="updatedAt" style="shape=partialRectangle;html=1;whiteSpace=wrap;connectable=0;fillColor=#FAE5C7;top=0;left=0;bottom=0;right=0;overflow=hidden;labelBackgroundColor=none;strokeColor=#0F8B8D;strokeWidth=0;spacing=0;spacingTop=8;spacingLeft=8;spacingRight=8;spacingBottom=6;align=left;fontColor=#143642;shadow=0;rounded=1;sketch=1;curveFitting=1;jiggle=2;" vertex="1" parent="XUXtn4tgAi1DHnVcITGY-261">
          <mxGeometry x="40" width="110" height="28" as="geometry">
            <mxRectangle width="110" height="28" as="alternateBounds" />
          </mxGeometry>
        </mxCell>
        <mxCell id="XUXtn4tgAi1DHnVcITGY-264" value="DATETIME" style="shape=partialRectangle;html=1;whiteSpace=wrap;connectable=0;fillColor=#FAE5C7;top=0;left=0;bottom=0;right=0;overflow=hidden;labelBackgroundColor=none;strokeColor=#0F8B8D;strokeWidth=0;spacing=0;spacingTop=8;spacingLeft=8;spacingRight=8;spacingBottom=6;align=left;fontColor=#143642;shadow=0;rounded=1;sketch=1;curveFitting=1;jiggle=2;" vertex="1" parent="XUXtn4tgAi1DHnVcITGY-261">
          <mxGeometry x="150" width="90" height="28" as="geometry">
            <mxRectangle width="90" height="28" as="alternateBounds" />
          </mxGeometry>
        </mxCell>
        <mxCell id="20" value="User" style="shape=table;startSize=30;container=1;collapsible=0;childLayout=tableLayout;fontStyle=1;align=left;labelBackgroundColor=none;spacing=6;swimlaneLine=1;fillColor=#f5f5f5;strokeColor=#666666;shadow=1;rounded=1;swimlaneFillColor=default;fontFamily=Helvetica;fontSize=12;verticalAlign=middle;movable=1;resizable=1;rotatable=1;deletable=1;editable=1;locked=0;connectable=1;gradientColor=#b3b3b3;fontColor=#000000;" parent="1" vertex="1">
          <mxGeometry x="153" y="61" width="264.3499755859375" height="340.15051879882867" as="geometry" />
        </mxCell>
        <mxCell id="21" value="" style="shape=tableRow;horizontal=0;startSize=0;swimlaneHead=0;swimlaneBody=0;top=0;left=0;bottom=0;right=0;collapsible=0;dropTarget=0;fillColor=#FAE5C7;points=[[0,0.5],[1,0.5]];portConstraint=eastwest;labelBackgroundColor=none;swimlaneLine=0;strokeColor=#0F8B8D;fontColor=#143642;shadow=0;rounded=1;sketch=1;curveFitting=1;jiggle=2;verticalAlign=middle;" parent="20" vertex="1">
          <mxGeometry y="30" width="264.3499755859375" height="26" as="geometry" />
        </mxCell>
        <mxCell id="22" value="PK" style="shape=partialRectangle;html=1;whiteSpace=wrap;connectable=0;fillColor=#FAE5C7;top=0;left=0;bottom=0;right=0;overflow=hidden;labelBackgroundColor=none;strokeColor=#0F8B8D;strokeWidth=0;spacing=0;spacingTop=8;spacingLeft=8;spacingRight=8;spacingBottom=6;fontColor=#143642;shadow=0;rounded=1;sketch=1;curveFitting=1;jiggle=2;verticalAlign=middle;" parent="21" vertex="1">
          <mxGeometry width="31" height="26" as="geometry">
            <mxRectangle width="31" height="26" as="alternateBounds" />
          </mxGeometry>
        </mxCell>
        <mxCell id="23" value="id" style="shape=partialRectangle;html=1;whiteSpace=wrap;connectable=0;fillColor=#FAE5C7;top=0;left=0;bottom=0;right=0;overflow=hidden;labelBackgroundColor=none;strokeColor=#0F8B8D;strokeWidth=0;align=left;spacing=0;spacingTop=8;spacingLeft=8;spacingRight=8;spacingBottom=6;fontColor=#143642;shadow=0;rounded=1;sketch=1;curveFitting=1;jiggle=2;verticalAlign=middle;" parent="21" vertex="1">
          <mxGeometry x="31" width="137" height="26" as="geometry">
            <mxRectangle width="137" height="26" as="alternateBounds" />
          </mxGeometry>
        </mxCell>
        <mxCell id="24" value="BINARY(16)" style="shape=partialRectangle;html=1;whiteSpace=wrap;connectable=0;fillColor=#FAE5C7;top=0;left=0;bottom=0;right=0;overflow=hidden;labelBackgroundColor=none;strokeColor=#0F8B8D;strokeWidth=0;align=left;spacing=0;spacingTop=8;spacingLeft=8;spacingRight=8;spacingBottom=6;fontColor=#143642;shadow=0;rounded=1;sketch=1;curveFitting=1;jiggle=2;verticalAlign=middle;" parent="21" vertex="1">
          <mxGeometry x="168" width="96" height="26" as="geometry">
            <mxRectangle width="96" height="26" as="alternateBounds" />
          </mxGeometry>
        </mxCell>
        <mxCell id="33" style="shape=tableRow;horizontal=0;startSize=0;swimlaneHead=0;swimlaneBody=0;top=0;left=0;bottom=0;right=0;collapsible=0;dropTarget=0;fillColor=#FAE5C7;points=[[0,0.5],[1,0.5]];portConstraint=eastwest;labelBackgroundColor=none;fontColor=#143642;strokeColor=#0F8B8D;shadow=0;rounded=1;sketch=1;curveFitting=1;jiggle=2;verticalAlign=middle;" parent="20" vertex="1">
          <mxGeometry y="56" width="264.3499755859375" height="27" as="geometry" />
        </mxCell>
        <mxCell id="34" value="" style="shape=partialRectangle;html=1;whiteSpace=wrap;connectable=0;fillColor=#FAE5C7;top=0;left=0;bottom=0;right=0;overflow=hidden;labelBackgroundColor=none;strokeColor=#0F8B8D;strokeWidth=0;spacing=0;spacingTop=8;spacingLeft=8;spacingRight=8;spacingBottom=6;fontColor=#143642;shadow=0;rounded=1;sketch=1;curveFitting=1;jiggle=2;verticalAlign=middle;" parent="33" vertex="1">
          <mxGeometry width="31" height="27" as="geometry">
            <mxRectangle width="31" height="27" as="alternateBounds" />
          </mxGeometry>
        </mxCell>
        <mxCell id="35" value="name" style="shape=partialRectangle;html=1;whiteSpace=wrap;connectable=0;fillColor=#FAE5C7;top=0;left=0;bottom=0;right=0;overflow=hidden;labelBackgroundColor=none;strokeColor=#0F8B8D;strokeWidth=0;spacing=0;spacingTop=8;spacingLeft=8;spacingRight=8;spacingBottom=6;align=left;fontColor=#143642;shadow=0;rounded=1;sketch=1;curveFitting=1;jiggle=2;verticalAlign=middle;" parent="33" vertex="1">
          <mxGeometry x="31" width="137" height="27" as="geometry">
            <mxRectangle width="137" height="27" as="alternateBounds" />
          </mxGeometry>
        </mxCell>
        <mxCell id="36" value="VARCHAR" style="shape=partialRectangle;html=1;whiteSpace=wrap;connectable=0;fillColor=#FAE5C7;top=0;left=0;bottom=0;right=0;overflow=hidden;labelBackgroundColor=none;strokeColor=#0F8B8D;strokeWidth=0;spacing=0;spacingTop=8;spacingLeft=8;spacingRight=8;spacingBottom=6;align=left;fontColor=#143642;shadow=0;rounded=1;sketch=1;curveFitting=1;jiggle=2;verticalAlign=middle;" parent="33" vertex="1">
          <mxGeometry x="168" width="96" height="27" as="geometry">
            <mxRectangle width="96" height="27" as="alternateBounds" />
          </mxGeometry>
        </mxCell>
        <mxCell id="37" style="shape=tableRow;horizontal=0;startSize=0;swimlaneHead=0;swimlaneBody=0;top=0;left=0;bottom=0;right=0;collapsible=0;dropTarget=0;fillColor=#FAE5C7;points=[[0,0.5],[1,0.5]];portConstraint=eastwest;labelBackgroundColor=none;fontColor=#143642;strokeColor=#0F8B8D;shadow=0;rounded=1;sketch=1;curveFitting=1;jiggle=2;verticalAlign=middle;" parent="20" vertex="1">
          <mxGeometry y="83" width="264.3499755859375" height="28" as="geometry" />
        </mxCell>
        <mxCell id="38" style="shape=partialRectangle;html=1;whiteSpace=wrap;connectable=0;fillColor=#FAE5C7;top=0;left=0;bottom=0;right=0;overflow=hidden;labelBackgroundColor=none;strokeColor=#0F8B8D;strokeWidth=0;spacing=0;spacingTop=8;spacingLeft=8;spacingRight=8;spacingBottom=6;fontColor=#143642;shadow=0;rounded=1;sketch=1;curveFitting=1;jiggle=2;verticalAlign=middle;" parent="37" vertex="1">
          <mxGeometry width="31" height="28" as="geometry">
            <mxRectangle width="31" height="28" as="alternateBounds" />
          </mxGeometry>
        </mxCell>
        <mxCell id="39" value="email" style="shape=partialRectangle;html=1;whiteSpace=wrap;connectable=0;fillColor=#FAE5C7;top=0;left=0;bottom=0;right=0;overflow=hidden;labelBackgroundColor=none;strokeColor=#0F8B8D;strokeWidth=0;spacing=0;spacingTop=8;spacingLeft=8;spacingRight=8;spacingBottom=6;align=left;fontColor=#143642;shadow=0;rounded=1;sketch=1;curveFitting=1;jiggle=2;verticalAlign=middle;" parent="37" vertex="1">
          <mxGeometry x="31" width="137" height="28" as="geometry">
            <mxRectangle width="137" height="28" as="alternateBounds" />
          </mxGeometry>
        </mxCell>
        <mxCell id="40" value="VARCHAR" style="shape=partialRectangle;html=1;whiteSpace=wrap;connectable=0;fillColor=#FAE5C7;top=0;left=0;bottom=0;right=0;overflow=hidden;labelBackgroundColor=none;strokeColor=#0F8B8D;strokeWidth=0;spacing=0;spacingTop=8;spacingLeft=8;spacingRight=8;spacingBottom=6;align=left;fontColor=#143642;shadow=0;rounded=1;sketch=1;curveFitting=1;jiggle=2;verticalAlign=middle;" parent="37" vertex="1">
          <mxGeometry x="168" width="96" height="28" as="geometry">
            <mxRectangle width="96" height="28" as="alternateBounds" />
          </mxGeometry>
        </mxCell>
        <mxCell id="78" style="shape=tableRow;horizontal=0;startSize=0;swimlaneHead=0;swimlaneBody=0;top=0;left=0;bottom=0;right=0;collapsible=0;dropTarget=0;fillColor=#FAE5C7;points=[[0,0.5],[1,0.5]];portConstraint=eastwest;labelBackgroundColor=none;fontColor=#143642;strokeColor=#0F8B8D;shadow=0;rounded=1;sketch=1;curveFitting=1;jiggle=2;verticalAlign=middle;" parent="20" vertex="1">
          <mxGeometry y="111" width="264.3499755859375" height="28" as="geometry" />
        </mxCell>
        <mxCell id="79" style="shape=partialRectangle;html=1;whiteSpace=wrap;connectable=0;fillColor=#FAE5C7;top=0;left=0;bottom=0;right=0;overflow=hidden;labelBackgroundColor=none;strokeColor=#0F8B8D;strokeWidth=0;spacing=0;spacingTop=8;spacingLeft=8;spacingRight=8;spacingBottom=6;fontColor=#143642;shadow=0;rounded=1;sketch=1;curveFitting=1;jiggle=2;verticalAlign=middle;" parent="78" vertex="1">
          <mxGeometry width="31" height="28" as="geometry">
            <mxRectangle width="31" height="28" as="alternateBounds" />
          </mxGeometry>
        </mxCell>
        <mxCell id="80" value="password" style="shape=partialRectangle;html=1;whiteSpace=wrap;connectable=0;fillColor=#FAE5C7;top=0;left=0;bottom=0;right=0;overflow=hidden;labelBackgroundColor=none;strokeColor=#0F8B8D;strokeWidth=0;spacing=0;spacingTop=8;spacingLeft=8;spacingRight=8;spacingBottom=6;align=left;fontColor=#143642;shadow=0;rounded=1;sketch=1;curveFitting=1;jiggle=2;verticalAlign=middle;" parent="78" vertex="1">
          <mxGeometry x="31" width="137" height="28" as="geometry">
            <mxRectangle width="137" height="28" as="alternateBounds" />
          </mxGeometry>
        </mxCell>
        <mxCell id="81" value="VARCHAR" style="shape=partialRectangle;html=1;whiteSpace=wrap;connectable=0;fillColor=#FAE5C7;top=0;left=0;bottom=0;right=0;overflow=hidden;labelBackgroundColor=none;strokeColor=#0F8B8D;strokeWidth=0;spacing=0;spacingTop=8;spacingLeft=8;spacingRight=8;spacingBottom=6;align=left;fontColor=#143642;shadow=0;rounded=1;sketch=1;curveFitting=1;jiggle=2;verticalAlign=middle;" parent="78" vertex="1">
          <mxGeometry x="168" width="96" height="28" as="geometry">
            <mxRectangle width="96" height="28" as="alternateBounds" />
          </mxGeometry>
        </mxCell>
        <mxCell id="XUXtn4tgAi1DHnVcITGY-220" style="shape=tableRow;horizontal=0;startSize=0;swimlaneHead=0;swimlaneBody=0;top=0;left=0;bottom=0;right=0;collapsible=0;dropTarget=0;fillColor=#FAE5C7;points=[[0,0.5],[1,0.5]];portConstraint=eastwest;labelBackgroundColor=none;fontColor=#143642;strokeColor=#0F8B8D;shadow=0;rounded=1;sketch=1;curveFitting=1;jiggle=2;verticalAlign=middle;" vertex="1" parent="20">
          <mxGeometry y="139" width="264.3499755859375" height="30" as="geometry" />
        </mxCell>
        <mxCell id="XUXtn4tgAi1DHnVcITGY-221" style="shape=partialRectangle;html=1;whiteSpace=wrap;connectable=0;fillColor=#FAE5C7;top=0;left=0;bottom=0;right=0;overflow=hidden;labelBackgroundColor=none;strokeColor=#0F8B8D;strokeWidth=0;spacing=0;spacingTop=8;spacingLeft=8;spacingRight=8;spacingBottom=6;fontColor=#143642;shadow=0;rounded=1;sketch=1;curveFitting=1;jiggle=2;verticalAlign=middle;" vertex="1" parent="XUXtn4tgAi1DHnVcITGY-220">
          <mxGeometry width="31" height="30" as="geometry">
            <mxRectangle width="31" height="30" as="alternateBounds" />
          </mxGeometry>
        </mxCell>
        <mxCell id="XUXtn4tgAi1DHnVcITGY-222" value="image&lt;span style=&quot;white-space: pre;&quot;&gt;&#x9;&lt;/span&gt;&lt;span style=&quot;white-space: pre;&quot;&gt;&#x9;&lt;/span&gt;" style="shape=partialRectangle;html=1;whiteSpace=wrap;connectable=0;fillColor=#FAE5C7;top=0;left=0;bottom=0;right=0;overflow=hidden;labelBackgroundColor=none;strokeColor=#0F8B8D;strokeWidth=0;spacing=0;spacingTop=8;spacingLeft=8;spacingRight=8;spacingBottom=6;align=left;fontColor=#143642;shadow=0;rounded=1;sketch=1;curveFitting=1;jiggle=2;verticalAlign=middle;" vertex="1" parent="XUXtn4tgAi1DHnVcITGY-220">
          <mxGeometry x="31" width="137" height="30" as="geometry">
            <mxRectangle width="137" height="30" as="alternateBounds" />
          </mxGeometry>
        </mxCell>
        <mxCell id="XUXtn4tgAi1DHnVcITGY-223" value="VARCHAR" style="shape=partialRectangle;html=1;whiteSpace=wrap;connectable=0;fillColor=#FAE5C7;top=0;left=0;bottom=0;right=0;overflow=hidden;labelBackgroundColor=none;strokeColor=#0F8B8D;strokeWidth=0;spacing=0;spacingTop=8;spacingLeft=8;spacingRight=8;spacingBottom=6;align=left;fontColor=#143642;shadow=0;rounded=1;sketch=1;curveFitting=1;jiggle=2;verticalAlign=middle;" vertex="1" parent="XUXtn4tgAi1DHnVcITGY-220">
          <mxGeometry x="168" width="96" height="30" as="geometry">
            <mxRectangle width="96" height="30" as="alternateBounds" />
          </mxGeometry>
        </mxCell>
        <mxCell id="XUXtn4tgAi1DHnVcITGY-216" style="shape=tableRow;horizontal=0;startSize=0;swimlaneHead=0;swimlaneBody=0;top=0;left=0;bottom=0;right=0;collapsible=0;dropTarget=0;fillColor=#FAE5C7;points=[[0,0.5],[1,0.5]];portConstraint=eastwest;labelBackgroundColor=none;fontColor=#143642;strokeColor=#0F8B8D;shadow=0;rounded=1;sketch=1;curveFitting=1;jiggle=2;verticalAlign=middle;" vertex="1" parent="20">
          <mxGeometry y="169" width="264.3499755859375" height="28" as="geometry" />
        </mxCell>
        <mxCell id="XUXtn4tgAi1DHnVcITGY-217" style="shape=partialRectangle;html=1;whiteSpace=wrap;connectable=0;fillColor=#FAE5C7;top=0;left=0;bottom=0;right=0;overflow=hidden;labelBackgroundColor=none;strokeColor=#0F8B8D;strokeWidth=0;spacing=0;spacingTop=8;spacingLeft=8;spacingRight=8;spacingBottom=6;fontColor=#143642;shadow=0;rounded=1;sketch=1;curveFitting=1;jiggle=2;verticalAlign=middle;" vertex="1" parent="XUXtn4tgAi1DHnVcITGY-216">
          <mxGeometry width="31" height="28" as="geometry">
            <mxRectangle width="31" height="28" as="alternateBounds" />
          </mxGeometry>
        </mxCell>
        <mxCell id="XUXtn4tgAi1DHnVcITGY-218" value="bio&lt;span style=&quot;white-space: pre;&quot;&gt;&#x9;&lt;/span&gt;" style="shape=partialRectangle;html=1;whiteSpace=wrap;connectable=0;fillColor=#FAE5C7;top=0;left=0;bottom=0;right=0;overflow=hidden;labelBackgroundColor=none;strokeColor=#0F8B8D;strokeWidth=0;spacing=0;spacingTop=8;spacingLeft=8;spacingRight=8;spacingBottom=6;align=left;fontColor=#143642;shadow=0;rounded=1;sketch=1;curveFitting=1;jiggle=2;verticalAlign=middle;" vertex="1" parent="XUXtn4tgAi1DHnVcITGY-216">
          <mxGeometry x="31" width="137" height="28" as="geometry">
            <mxRectangle width="137" height="28" as="alternateBounds" />
          </mxGeometry>
        </mxCell>
        <mxCell id="XUXtn4tgAi1DHnVcITGY-219" value="LONGTEXT" style="shape=partialRectangle;html=1;whiteSpace=wrap;connectable=0;fillColor=#FAE5C7;top=0;left=0;bottom=0;right=0;overflow=hidden;labelBackgroundColor=none;strokeColor=#0F8B8D;strokeWidth=0;spacing=0;spacingTop=8;spacingLeft=8;spacingRight=8;spacingBottom=6;align=left;fontColor=#143642;shadow=0;rounded=1;sketch=1;curveFitting=1;jiggle=2;verticalAlign=middle;" vertex="1" parent="XUXtn4tgAi1DHnVcITGY-216">
          <mxGeometry x="168" width="96" height="28" as="geometry">
            <mxRectangle width="96" height="28" as="alternateBounds" />
          </mxGeometry>
        </mxCell>
        <mxCell id="XUXtn4tgAi1DHnVcITGY-269" style="shape=tableRow;horizontal=0;startSize=0;swimlaneHead=0;swimlaneBody=0;top=0;left=0;bottom=0;right=0;collapsible=0;dropTarget=0;fillColor=#FAE5C7;points=[[0,0.5],[1,0.5]];portConstraint=eastwest;labelBackgroundColor=none;fontColor=#143642;strokeColor=#0F8B8D;shadow=0;rounded=1;sketch=1;curveFitting=1;jiggle=2;verticalAlign=middle;" vertex="1" parent="20">
          <mxGeometry y="197" width="264.3499755859375" height="27" as="geometry" />
        </mxCell>
        <mxCell id="XUXtn4tgAi1DHnVcITGY-270" style="shape=partialRectangle;html=1;whiteSpace=wrap;connectable=0;fillColor=#FAE5C7;top=0;left=0;bottom=0;right=0;overflow=hidden;labelBackgroundColor=none;strokeColor=#0F8B8D;strokeWidth=0;spacing=0;spacingTop=8;spacingLeft=8;spacingRight=8;spacingBottom=6;fontColor=#143642;shadow=0;rounded=1;sketch=1;curveFitting=1;jiggle=2;verticalAlign=middle;" vertex="1" parent="XUXtn4tgAi1DHnVcITGY-269">
          <mxGeometry width="31" height="27" as="geometry">
            <mxRectangle width="31" height="27" as="alternateBounds" />
          </mxGeometry>
        </mxCell>
        <mxCell id="XUXtn4tgAi1DHnVcITGY-271" value="default_location_id" style="shape=partialRectangle;html=1;whiteSpace=wrap;connectable=0;fillColor=#FAE5C7;top=0;left=0;bottom=0;right=0;overflow=hidden;labelBackgroundColor=none;strokeColor=#0F8B8D;strokeWidth=0;spacing=0;spacingTop=8;spacingLeft=8;spacingRight=8;spacingBottom=6;align=left;fontColor=#143642;shadow=0;rounded=1;sketch=1;curveFitting=1;jiggle=2;verticalAlign=middle;" vertex="1" parent="XUXtn4tgAi1DHnVcITGY-269">
          <mxGeometry x="31" width="137" height="27" as="geometry">
            <mxRectangle width="137" height="27" as="alternateBounds" />
          </mxGeometry>
        </mxCell>
        <mxCell id="XUXtn4tgAi1DHnVcITGY-272" value="BINARY(16)" style="shape=partialRectangle;html=1;whiteSpace=wrap;connectable=0;fillColor=#FAE5C7;top=0;left=0;bottom=0;right=0;overflow=hidden;labelBackgroundColor=none;strokeColor=#0F8B8D;strokeWidth=0;spacing=0;spacingTop=8;spacingLeft=8;spacingRight=8;spacingBottom=6;align=left;fontColor=#143642;shadow=0;rounded=1;sketch=1;curveFitting=1;jiggle=2;verticalAlign=middle;" vertex="1" parent="XUXtn4tgAi1DHnVcITGY-269">
          <mxGeometry x="168" width="96" height="27" as="geometry">
            <mxRectangle width="96" height="27" as="alternateBounds" />
          </mxGeometry>
        </mxCell>
        <mxCell id="XUXtn4tgAi1DHnVcITGY-273" style="shape=tableRow;horizontal=0;startSize=0;swimlaneHead=0;swimlaneBody=0;top=0;left=0;bottom=0;right=0;collapsible=0;dropTarget=0;fillColor=#FAE5C7;points=[[0,0.5],[1,0.5]];portConstraint=eastwest;labelBackgroundColor=none;fontColor=#143642;strokeColor=#0F8B8D;shadow=0;rounded=1;sketch=1;curveFitting=1;jiggle=2;verticalAlign=middle;" vertex="1" parent="20">
          <mxGeometry y="224" width="264.3499755859375" height="31" as="geometry" />
        </mxCell>
        <mxCell id="XUXtn4tgAi1DHnVcITGY-274" style="shape=partialRectangle;html=1;whiteSpace=wrap;connectable=0;fillColor=#FAE5C7;top=0;left=0;bottom=0;right=0;overflow=hidden;labelBackgroundColor=none;strokeColor=#0F8B8D;strokeWidth=0;spacing=0;spacingTop=8;spacingLeft=8;spacingRight=8;spacingBottom=6;fontColor=#143642;shadow=0;rounded=1;sketch=1;curveFitting=1;jiggle=2;verticalAlign=middle;" vertex="1" parent="XUXtn4tgAi1DHnVcITGY-273">
          <mxGeometry width="31" height="31" as="geometry">
            <mxRectangle width="31" height="31" as="alternateBounds" />
          </mxGeometry>
        </mxCell>
        <mxCell id="XUXtn4tgAi1DHnVcITGY-275" value="friend_list_id" style="shape=partialRectangle;html=1;whiteSpace=wrap;connectable=0;fillColor=#FAE5C7;top=0;left=0;bottom=0;right=0;overflow=hidden;labelBackgroundColor=none;strokeColor=#0F8B8D;strokeWidth=0;spacing=0;spacingTop=8;spacingLeft=8;spacingRight=8;spacingBottom=6;align=left;fontColor=#143642;shadow=0;rounded=1;sketch=1;curveFitting=1;jiggle=2;verticalAlign=middle;" vertex="1" parent="XUXtn4tgAi1DHnVcITGY-273">
          <mxGeometry x="31" width="137" height="31" as="geometry">
            <mxRectangle width="137" height="31" as="alternateBounds" />
          </mxGeometry>
        </mxCell>
        <mxCell id="XUXtn4tgAi1DHnVcITGY-276" value="BINARY (16)" style="shape=partialRectangle;html=1;whiteSpace=wrap;connectable=0;fillColor=#FAE5C7;top=0;left=0;bottom=0;right=0;overflow=hidden;labelBackgroundColor=none;strokeColor=#0F8B8D;strokeWidth=0;spacing=0;spacingTop=8;spacingLeft=8;spacingRight=8;spacingBottom=6;align=left;fontColor=#143642;shadow=0;rounded=1;sketch=1;curveFitting=1;jiggle=2;verticalAlign=middle;" vertex="1" parent="XUXtn4tgAi1DHnVcITGY-273">
          <mxGeometry x="168" width="96" height="31" as="geometry">
            <mxRectangle width="96" height="31" as="alternateBounds" />
          </mxGeometry>
        </mxCell>
        <mxCell id="XUXtn4tgAi1DHnVcITGY-212" style="shape=tableRow;horizontal=0;startSize=0;swimlaneHead=0;swimlaneBody=0;top=0;left=0;bottom=0;right=0;collapsible=0;dropTarget=0;fillColor=#FAE5C7;points=[[0,0.5],[1,0.5]];portConstraint=eastwest;labelBackgroundColor=none;fontColor=#143642;strokeColor=#0F8B8D;shadow=0;rounded=1;sketch=1;curveFitting=1;jiggle=2;verticalAlign=middle;" vertex="1" parent="20">
          <mxGeometry y="255" width="264.3499755859375" height="31" as="geometry" />
        </mxCell>
        <mxCell id="XUXtn4tgAi1DHnVcITGY-213" style="shape=partialRectangle;html=1;whiteSpace=wrap;connectable=0;fillColor=#FAE5C7;top=0;left=0;bottom=0;right=0;overflow=hidden;labelBackgroundColor=none;strokeColor=#0F8B8D;strokeWidth=0;spacing=0;spacingTop=8;spacingLeft=8;spacingRight=8;spacingBottom=6;fontColor=#143642;shadow=0;rounded=1;sketch=1;curveFitting=1;jiggle=2;verticalAlign=middle;" vertex="1" parent="XUXtn4tgAi1DHnVcITGY-212">
          <mxGeometry width="31" height="31" as="geometry">
            <mxRectangle width="31" height="31" as="alternateBounds" />
          </mxGeometry>
        </mxCell>
        <mxCell id="XUXtn4tgAi1DHnVcITGY-214" value="meetings[meeting_id]" style="shape=partialRectangle;html=1;whiteSpace=wrap;connectable=0;fillColor=#FAE5C7;top=0;left=0;bottom=0;right=0;overflow=hidden;labelBackgroundColor=none;strokeColor=#0F8B8D;strokeWidth=0;spacing=0;spacingTop=8;spacingLeft=8;spacingRight=8;spacingBottom=6;align=left;fontColor=#143642;shadow=0;rounded=1;sketch=1;curveFitting=1;jiggle=2;verticalAlign=middle;" vertex="1" parent="XUXtn4tgAi1DHnVcITGY-212">
          <mxGeometry x="31" width="137" height="31" as="geometry">
            <mxRectangle width="137" height="31" as="alternateBounds" />
          </mxGeometry>
        </mxCell>
        <mxCell id="XUXtn4tgAi1DHnVcITGY-215" value="BINARY(16)" style="shape=partialRectangle;html=1;whiteSpace=wrap;connectable=0;fillColor=#FAE5C7;top=0;left=0;bottom=0;right=0;overflow=hidden;labelBackgroundColor=none;strokeColor=#0F8B8D;strokeWidth=0;spacing=0;spacingTop=8;spacingLeft=8;spacingRight=8;spacingBottom=6;align=left;fontColor=#143642;shadow=0;rounded=1;sketch=1;curveFitting=1;jiggle=2;verticalAlign=middle;" vertex="1" parent="XUXtn4tgAi1DHnVcITGY-212">
          <mxGeometry x="168" width="96" height="31" as="geometry">
            <mxRectangle width="96" height="31" as="alternateBounds" />
          </mxGeometry>
        </mxCell>
        <mxCell id="41" style="shape=tableRow;horizontal=0;startSize=0;swimlaneHead=0;swimlaneBody=0;top=0;left=0;bottom=0;right=0;collapsible=0;dropTarget=0;fillColor=#FAE5C7;points=[[0,0.5],[1,0.5]];portConstraint=eastwest;labelBackgroundColor=none;fontColor=#143642;strokeColor=#0F8B8D;shadow=0;rounded=1;sketch=1;curveFitting=1;jiggle=2;verticalAlign=middle;" parent="20" vertex="1">
          <mxGeometry y="286" width="264.3499755859375" height="26" as="geometry" />
        </mxCell>
        <mxCell id="42" style="shape=partialRectangle;html=1;whiteSpace=wrap;connectable=0;fillColor=#FAE5C7;top=0;left=0;bottom=0;right=0;overflow=hidden;labelBackgroundColor=none;strokeColor=#0F8B8D;strokeWidth=0;spacing=0;spacingTop=8;spacingLeft=8;spacingRight=8;spacingBottom=6;fontColor=#143642;shadow=0;rounded=1;sketch=1;curveFitting=1;jiggle=2;verticalAlign=middle;" parent="41" vertex="1">
          <mxGeometry width="31" height="26" as="geometry">
            <mxRectangle width="31" height="26" as="alternateBounds" />
          </mxGeometry>
        </mxCell>
        <mxCell id="43" value="createdAt" style="shape=partialRectangle;html=1;whiteSpace=wrap;connectable=0;fillColor=#FAE5C7;top=0;left=0;bottom=0;right=0;overflow=hidden;labelBackgroundColor=none;strokeColor=#0F8B8D;strokeWidth=0;spacing=0;spacingTop=8;spacingLeft=8;spacingRight=8;spacingBottom=6;align=left;fontColor=#143642;shadow=0;rounded=1;sketch=1;curveFitting=1;jiggle=2;verticalAlign=middle;" parent="41" vertex="1">
          <mxGeometry x="31" width="137" height="26" as="geometry">
            <mxRectangle width="137" height="26" as="alternateBounds" />
          </mxGeometry>
        </mxCell>
        <mxCell id="44" value="DATETIME" style="shape=partialRectangle;html=1;whiteSpace=wrap;connectable=0;fillColor=#FAE5C7;top=0;left=0;bottom=0;right=0;overflow=hidden;labelBackgroundColor=none;strokeColor=#0F8B8D;strokeWidth=0;spacing=0;spacingTop=8;spacingLeft=8;spacingRight=8;spacingBottom=6;align=left;fontColor=#143642;shadow=0;rounded=1;sketch=1;curveFitting=1;jiggle=2;verticalAlign=middle;" parent="41" vertex="1">
          <mxGeometry x="168" width="96" height="26" as="geometry">
            <mxRectangle width="96" height="26" as="alternateBounds" />
          </mxGeometry>
        </mxCell>
        <mxCell id="45" style="shape=tableRow;horizontal=0;startSize=0;swimlaneHead=0;swimlaneBody=0;top=0;left=0;bottom=0;right=0;collapsible=0;dropTarget=0;fillColor=#FAE5C7;points=[[0,0.5],[1,0.5]];portConstraint=eastwest;labelBackgroundColor=none;fontColor=#143642;strokeColor=#0F8B8D;shadow=0;rounded=1;sketch=1;curveFitting=1;jiggle=2;verticalAlign=middle;" parent="20" vertex="1">
          <mxGeometry y="312" width="264.3499755859375" height="28" as="geometry" />
        </mxCell>
        <mxCell id="46" style="shape=partialRectangle;html=1;whiteSpace=wrap;connectable=0;fillColor=#FAE5C7;top=0;left=0;bottom=0;right=0;overflow=hidden;labelBackgroundColor=none;strokeColor=#0F8B8D;strokeWidth=0;spacing=0;spacingTop=8;spacingLeft=8;spacingRight=8;spacingBottom=6;fontColor=#143642;shadow=0;rounded=1;sketch=1;curveFitting=1;jiggle=2;verticalAlign=middle;" parent="45" vertex="1">
          <mxGeometry width="31" height="28" as="geometry">
            <mxRectangle width="31" height="28" as="alternateBounds" />
          </mxGeometry>
        </mxCell>
        <mxCell id="47" value="updatedAt" style="shape=partialRectangle;html=1;whiteSpace=wrap;connectable=0;fillColor=#FAE5C7;top=0;left=0;bottom=0;right=0;overflow=hidden;labelBackgroundColor=none;strokeColor=#0F8B8D;strokeWidth=0;spacing=0;spacingTop=8;spacingLeft=8;spacingRight=8;spacingBottom=6;align=left;fontColor=#143642;shadow=0;rounded=1;sketch=1;curveFitting=1;jiggle=2;verticalAlign=middle;" parent="45" vertex="1">
          <mxGeometry x="31" width="137" height="28" as="geometry">
            <mxRectangle width="137" height="28" as="alternateBounds" />
          </mxGeometry>
        </mxCell>
        <mxCell id="48" value="DATETIME" style="shape=partialRectangle;html=1;whiteSpace=wrap;connectable=0;fillColor=#FAE5C7;top=0;left=0;bottom=0;right=0;overflow=hidden;labelBackgroundColor=none;strokeColor=#0F8B8D;strokeWidth=0;spacing=0;spacingTop=8;spacingLeft=8;spacingRight=8;spacingBottom=6;align=left;fontColor=#143642;shadow=0;rounded=1;sketch=1;curveFitting=1;jiggle=2;verticalAlign=middle;" parent="45" vertex="1">
          <mxGeometry x="168" width="96" height="28" as="geometry">
            <mxRectangle width="96" height="28" as="alternateBounds" />
          </mxGeometry>
        </mxCell>
        <mxCell id="XUXtn4tgAi1DHnVcITGY-278" style="edgeStyle=orthogonalEdgeStyle;sketch=1;hachureGap=4;jiggle=2;curveFitting=1;orthogonalLoop=1;jettySize=auto;html=1;entryX=0;entryY=0.5;entryDx=0;entryDy=0;strokeColor=#A8201A;fontFamily=Architects Daughter;fontSource=https%3A%2F%2Ffonts.googleapis.com%2Fcss%3Ffamily%3DArchitects%2BDaughter;fontSize=16;fontColor=default;fillColor=#FAE5C7;curved=1;labelBackgroundColor=none;" edge="1" parent="1" source="XUXtn4tgAi1DHnVcITGY-212" target="83">
          <mxGeometry relative="1" as="geometry" />
        </mxCell>
        <mxCell id="XUXtn4tgAi1DHnVcITGY-279" style="edgeStyle=orthogonalEdgeStyle;sketch=1;hachureGap=4;jiggle=2;curveFitting=1;orthogonalLoop=1;jettySize=auto;html=1;strokeColor=#A8201A;fontFamily=Architects Daughter;fontSource=https%3A%2F%2Ffonts.googleapis.com%2Fcss%3Ffamily%3DArchitects%2BDaughter;fontSize=16;fontColor=default;fillColor=#FAE5C7;curved=1;labelBackgroundColor=none;" edge="1" parent="1" source="82" target="21">
          <mxGeometry relative="1" as="geometry" />
        </mxCell>
        <mxCell id="82" value="Meeting" style="shape=table;startSize=30;container=1;collapsible=0;childLayout=tableLayout;fontStyle=1;align=left;labelBackgroundColor=none;spacing=6;swimlaneLine=1;fillColor=#f5f5f5;strokeColor=#666666;shadow=1;rounded=1;swimlaneFillColor=default;fontFamily=Helvetica;fontSize=12;gradientColor=#b3b3b3;fontColor=#000000;" parent="1" vertex="1">
          <mxGeometry x="472.43" y="61" width="261.14996337890625" height="202.95004272460938" as="geometry" />
        </mxCell>
        <mxCell id="83" value="" style="shape=tableRow;horizontal=0;startSize=0;swimlaneHead=0;swimlaneBody=0;top=0;left=0;bottom=0;right=0;collapsible=0;dropTarget=0;fillColor=#FAE5C7;points=[[0,0.5],[1,0.5]];portConstraint=eastwest;labelBackgroundColor=none;swimlaneLine=0;strokeColor=#0F8B8D;fontColor=#143642;shadow=0;rounded=1;sketch=1;curveFitting=1;jiggle=2;" parent="82" vertex="1">
          <mxGeometry y="30" width="261.14996337890625" height="26" as="geometry" />
        </mxCell>
        <mxCell id="84" value="PK" style="shape=partialRectangle;html=1;whiteSpace=wrap;connectable=0;fillColor=#FAE5C7;top=0;left=0;bottom=0;right=0;overflow=hidden;labelBackgroundColor=none;strokeColor=#0F8B8D;strokeWidth=0;spacing=0;spacingTop=8;spacingLeft=8;spacingRight=8;spacingBottom=6;fontColor=#143642;shadow=0;rounded=1;sketch=1;curveFitting=1;jiggle=2;" parent="83" vertex="1">
          <mxGeometry width="40" height="26" as="geometry">
            <mxRectangle width="40" height="26" as="alternateBounds" />
          </mxGeometry>
        </mxCell>
        <mxCell id="85" value="id" style="shape=partialRectangle;html=1;whiteSpace=wrap;connectable=0;fillColor=#FAE5C7;top=0;left=0;bottom=0;right=0;overflow=hidden;labelBackgroundColor=none;strokeColor=#0F8B8D;strokeWidth=0;align=left;spacing=0;spacingTop=8;spacingLeft=8;spacingRight=8;spacingBottom=6;fontColor=#143642;shadow=0;rounded=1;sketch=1;curveFitting=1;jiggle=2;" parent="83" vertex="1">
          <mxGeometry x="40" width="131" height="26" as="geometry">
            <mxRectangle width="131" height="26" as="alternateBounds" />
          </mxGeometry>
        </mxCell>
        <mxCell id="86" value="BINARY(16)" style="shape=partialRectangle;html=1;whiteSpace=wrap;connectable=0;fillColor=#FAE5C7;top=0;left=0;bottom=0;right=0;overflow=hidden;labelBackgroundColor=none;strokeColor=#0F8B8D;strokeWidth=0;align=left;spacing=0;spacingTop=8;spacingLeft=8;spacingRight=8;spacingBottom=6;fontColor=#143642;shadow=0;rounded=1;sketch=1;curveFitting=1;jiggle=2;" parent="83" vertex="1">
          <mxGeometry x="171" width="90" height="26" as="geometry">
            <mxRectangle width="90" height="26" as="alternateBounds" />
          </mxGeometry>
        </mxCell>
        <mxCell id="87" style="shape=tableRow;horizontal=0;startSize=0;swimlaneHead=0;swimlaneBody=0;top=0;left=0;bottom=0;right=0;collapsible=0;dropTarget=0;fillColor=#FAE5C7;points=[[0,0.5],[1,0.5]];portConstraint=eastwest;labelBackgroundColor=none;fontColor=#143642;strokeColor=#0F8B8D;shadow=0;rounded=1;sketch=1;curveFitting=1;jiggle=2;" parent="82" vertex="1">
          <mxGeometry y="56" width="261.14996337890625" height="31" as="geometry" />
        </mxCell>
        <mxCell id="88" value="" style="shape=partialRectangle;html=1;whiteSpace=wrap;connectable=0;fillColor=#FAE5C7;top=0;left=0;bottom=0;right=0;overflow=hidden;labelBackgroundColor=none;strokeColor=#0F8B8D;strokeWidth=0;spacing=0;spacingTop=8;spacingLeft=8;spacingRight=8;spacingBottom=6;fontColor=#143642;shadow=0;rounded=1;sketch=1;curveFitting=1;jiggle=2;" parent="87" vertex="1">
          <mxGeometry width="40" height="31" as="geometry">
            <mxRectangle width="40" height="31" as="alternateBounds" />
          </mxGeometry>
        </mxCell>
        <mxCell id="89" value="meeting_location_id" style="shape=partialRectangle;html=1;whiteSpace=wrap;connectable=0;fillColor=#FAE5C7;top=0;left=0;bottom=0;right=0;overflow=hidden;labelBackgroundColor=none;strokeColor=#0F8B8D;strokeWidth=0;spacing=0;spacingTop=8;spacingLeft=8;spacingRight=8;spacingBottom=6;align=left;fontColor=#143642;shadow=0;rounded=1;sketch=1;curveFitting=1;jiggle=2;" parent="87" vertex="1">
          <mxGeometry x="40" width="131" height="31" as="geometry">
            <mxRectangle width="131" height="31" as="alternateBounds" />
          </mxGeometry>
        </mxCell>
        <mxCell id="90" value="VARCHAR" style="shape=partialRectangle;html=1;whiteSpace=wrap;connectable=0;fillColor=#FAE5C7;top=0;left=0;bottom=0;right=0;overflow=hidden;labelBackgroundColor=none;strokeColor=#0F8B8D;strokeWidth=0;spacing=0;spacingTop=8;spacingLeft=8;spacingRight=8;spacingBottom=6;align=left;fontColor=#143642;shadow=0;rounded=1;sketch=1;curveFitting=1;jiggle=2;" parent="87" vertex="1">
          <mxGeometry x="171" width="90" height="31" as="geometry">
            <mxRectangle width="90" height="31" as="alternateBounds" />
          </mxGeometry>
        </mxCell>
        <mxCell id="XUXtn4tgAi1DHnVcITGY-288" style="shape=tableRow;horizontal=0;startSize=0;swimlaneHead=0;swimlaneBody=0;top=0;left=0;bottom=0;right=0;collapsible=0;dropTarget=0;fillColor=#FAE5C7;points=[[0,0.5],[1,0.5]];portConstraint=eastwest;labelBackgroundColor=none;fontColor=#143642;strokeColor=#0F8B8D;shadow=0;rounded=1;sketch=1;curveFitting=1;jiggle=2;" vertex="1" parent="82">
          <mxGeometry y="87" width="261.14996337890625" height="34" as="geometry" />
        </mxCell>
        <mxCell id="XUXtn4tgAi1DHnVcITGY-289" style="shape=partialRectangle;html=1;whiteSpace=wrap;connectable=0;fillColor=#FAE5C7;top=0;left=0;bottom=0;right=0;overflow=hidden;labelBackgroundColor=none;strokeColor=#0F8B8D;strokeWidth=0;spacing=0;spacingTop=8;spacingLeft=8;spacingRight=8;spacingBottom=6;fontColor=#143642;shadow=0;rounded=1;sketch=1;curveFitting=1;jiggle=2;" vertex="1" parent="XUXtn4tgAi1DHnVcITGY-288">
          <mxGeometry width="40" height="34" as="geometry">
            <mxRectangle width="40" height="34" as="alternateBounds" />
          </mxGeometry>
        </mxCell>
        <mxCell id="XUXtn4tgAi1DHnVcITGY-290" value="members[member_id]" style="shape=partialRectangle;html=1;whiteSpace=wrap;connectable=0;fillColor=#FAE5C7;top=0;left=0;bottom=0;right=0;overflow=hidden;labelBackgroundColor=none;strokeColor=#0F8B8D;strokeWidth=0;spacing=0;spacingTop=8;spacingLeft=8;spacingRight=8;spacingBottom=6;align=left;fontColor=#143642;shadow=0;rounded=1;sketch=1;curveFitting=1;jiggle=2;" vertex="1" parent="XUXtn4tgAi1DHnVcITGY-288">
          <mxGeometry x="40" width="131" height="34" as="geometry">
            <mxRectangle width="131" height="34" as="alternateBounds" />
          </mxGeometry>
        </mxCell>
        <mxCell id="XUXtn4tgAi1DHnVcITGY-291" value="BINARY(16)" style="shape=partialRectangle;html=1;whiteSpace=wrap;connectable=0;fillColor=#FAE5C7;top=0;left=0;bottom=0;right=0;overflow=hidden;labelBackgroundColor=none;strokeColor=#0F8B8D;strokeWidth=0;spacing=0;spacingTop=8;spacingLeft=8;spacingRight=8;spacingBottom=6;align=left;fontColor=#143642;shadow=0;rounded=1;sketch=1;curveFitting=1;jiggle=2;" vertex="1" parent="XUXtn4tgAi1DHnVcITGY-288">
          <mxGeometry x="171" width="90" height="34" as="geometry">
            <mxRectangle width="90" height="34" as="alternateBounds" />
          </mxGeometry>
        </mxCell>
        <mxCell id="91" style="shape=tableRow;horizontal=0;startSize=0;swimlaneHead=0;swimlaneBody=0;top=0;left=0;bottom=0;right=0;collapsible=0;dropTarget=0;fillColor=#FAE5C7;points=[[0,0.5],[1,0.5]];portConstraint=eastwest;labelBackgroundColor=none;fontColor=#143642;strokeColor=#0F8B8D;shadow=0;rounded=1;sketch=1;curveFitting=1;jiggle=2;" parent="82" vertex="1">
          <mxGeometry y="121" width="261.14996337890625" height="28" as="geometry" />
        </mxCell>
        <mxCell id="92" style="shape=partialRectangle;html=1;whiteSpace=wrap;connectable=0;fillColor=#FAE5C7;top=0;left=0;bottom=0;right=0;overflow=hidden;labelBackgroundColor=none;strokeColor=#0F8B8D;strokeWidth=0;spacing=0;spacingTop=8;spacingLeft=8;spacingRight=8;spacingBottom=6;fontColor=#143642;shadow=0;rounded=1;sketch=1;curveFitting=1;jiggle=2;" parent="91" vertex="1">
          <mxGeometry width="40" height="28" as="geometry">
            <mxRectangle width="40" height="28" as="alternateBounds" />
          </mxGeometry>
        </mxCell>
        <mxCell id="93" value="date" style="shape=partialRectangle;html=1;whiteSpace=wrap;connectable=0;fillColor=#FAE5C7;top=0;left=0;bottom=0;right=0;overflow=hidden;labelBackgroundColor=none;strokeColor=#0F8B8D;strokeWidth=0;spacing=0;spacingTop=8;spacingLeft=8;spacingRight=8;spacingBottom=6;align=left;fontColor=#143642;shadow=0;rounded=1;sketch=1;curveFitting=1;jiggle=2;" parent="91" vertex="1">
          <mxGeometry x="40" width="131" height="28" as="geometry">
            <mxRectangle width="131" height="28" as="alternateBounds" />
          </mxGeometry>
        </mxCell>
        <mxCell id="94" value="DATETIME" style="shape=partialRectangle;html=1;whiteSpace=wrap;connectable=0;fillColor=#FAE5C7;top=0;left=0;bottom=0;right=0;overflow=hidden;labelBackgroundColor=none;strokeColor=#0F8B8D;strokeWidth=0;spacing=0;spacingTop=8;spacingLeft=8;spacingRight=8;spacingBottom=6;align=left;fontColor=#143642;shadow=0;rounded=1;sketch=1;curveFitting=1;jiggle=2;" parent="91" vertex="1">
          <mxGeometry x="171" width="90" height="28" as="geometry">
            <mxRectangle width="90" height="28" as="alternateBounds" />
          </mxGeometry>
        </mxCell>
        <mxCell id="99" style="shape=tableRow;horizontal=0;startSize=0;swimlaneHead=0;swimlaneBody=0;top=0;left=0;bottom=0;right=0;collapsible=0;dropTarget=0;fillColor=#FAE5C7;points=[[0,0.5],[1,0.5]];portConstraint=eastwest;labelBackgroundColor=none;fontColor=#143642;strokeColor=#0F8B8D;shadow=0;rounded=1;sketch=1;curveFitting=1;jiggle=2;" parent="82" vertex="1">
          <mxGeometry y="149" width="261.14996337890625" height="27" as="geometry" />
        </mxCell>
        <mxCell id="100" style="shape=partialRectangle;html=1;whiteSpace=wrap;connectable=0;fillColor=#FAE5C7;top=0;left=0;bottom=0;right=0;overflow=hidden;labelBackgroundColor=none;strokeColor=#0F8B8D;strokeWidth=0;spacing=0;spacingTop=8;spacingLeft=8;spacingRight=8;spacingBottom=6;fontColor=#143642;shadow=0;rounded=1;sketch=1;curveFitting=1;jiggle=2;" parent="99" vertex="1">
          <mxGeometry width="40" height="27" as="geometry">
            <mxRectangle width="40" height="27" as="alternateBounds" />
          </mxGeometry>
        </mxCell>
        <mxCell id="101" value="createdAt" style="shape=partialRectangle;html=1;whiteSpace=wrap;connectable=0;fillColor=#FAE5C7;top=0;left=0;bottom=0;right=0;overflow=hidden;labelBackgroundColor=none;strokeColor=#0F8B8D;strokeWidth=0;spacing=0;spacingTop=8;spacingLeft=8;spacingRight=8;spacingBottom=6;align=left;fontColor=#143642;shadow=0;rounded=1;sketch=1;curveFitting=1;jiggle=2;" parent="99" vertex="1">
          <mxGeometry x="40" width="131" height="27" as="geometry">
            <mxRectangle width="131" height="27" as="alternateBounds" />
          </mxGeometry>
        </mxCell>
        <mxCell id="102" value="DATETIME" style="shape=partialRectangle;html=1;whiteSpace=wrap;connectable=0;fillColor=#FAE5C7;top=0;left=0;bottom=0;right=0;overflow=hidden;labelBackgroundColor=none;strokeColor=#0F8B8D;strokeWidth=0;spacing=0;spacingTop=8;spacingLeft=8;spacingRight=8;spacingBottom=6;align=left;fontColor=#143642;shadow=0;rounded=1;sketch=1;curveFitting=1;jiggle=2;" parent="99" vertex="1">
          <mxGeometry x="171" width="90" height="27" as="geometry">
            <mxRectangle width="90" height="27" as="alternateBounds" />
          </mxGeometry>
        </mxCell>
        <mxCell id="103" style="shape=tableRow;horizontal=0;startSize=0;swimlaneHead=0;swimlaneBody=0;top=0;left=0;bottom=0;right=0;collapsible=0;dropTarget=0;fillColor=#FAE5C7;points=[[0,0.5],[1,0.5]];portConstraint=eastwest;labelBackgroundColor=none;fontColor=#143642;strokeColor=#0F8B8D;shadow=0;rounded=1;sketch=1;curveFitting=1;jiggle=2;" parent="82" vertex="1">
          <mxGeometry y="176" width="261.14996337890625" height="27" as="geometry" />
        </mxCell>
        <mxCell id="104" style="shape=partialRectangle;html=1;whiteSpace=wrap;connectable=0;fillColor=#FAE5C7;top=0;left=0;bottom=0;right=0;overflow=hidden;labelBackgroundColor=none;strokeColor=#0F8B8D;strokeWidth=0;spacing=0;spacingTop=8;spacingLeft=8;spacingRight=8;spacingBottom=6;fontColor=#143642;shadow=0;rounded=1;sketch=1;curveFitting=1;jiggle=2;" parent="103" vertex="1">
          <mxGeometry width="40" height="27" as="geometry">
            <mxRectangle width="40" height="27" as="alternateBounds" />
          </mxGeometry>
        </mxCell>
        <mxCell id="105" value="updatedAt" style="shape=partialRectangle;html=1;whiteSpace=wrap;connectable=0;fillColor=#FAE5C7;top=0;left=0;bottom=0;right=0;overflow=hidden;labelBackgroundColor=none;strokeColor=#0F8B8D;strokeWidth=0;spacing=0;spacingTop=8;spacingLeft=8;spacingRight=8;spacingBottom=6;align=left;fontColor=#143642;shadow=0;rounded=1;sketch=1;curveFitting=1;jiggle=2;" parent="103" vertex="1">
          <mxGeometry x="40" width="131" height="27" as="geometry">
            <mxRectangle width="131" height="27" as="alternateBounds" />
          </mxGeometry>
        </mxCell>
        <mxCell id="106" value="DATETIME" style="shape=partialRectangle;html=1;whiteSpace=wrap;connectable=0;fillColor=#FAE5C7;top=0;left=0;bottom=0;right=0;overflow=hidden;labelBackgroundColor=none;strokeColor=#0F8B8D;strokeWidth=0;spacing=0;spacingTop=8;spacingLeft=8;spacingRight=8;spacingBottom=6;align=left;fontColor=#143642;shadow=0;rounded=1;sketch=1;curveFitting=1;jiggle=2;" parent="103" vertex="1">
          <mxGeometry x="171" width="90" height="27" as="geometry">
            <mxRectangle width="90" height="27" as="alternateBounds" />
          </mxGeometry>
        </mxCell>
        <mxCell id="XUXtn4tgAi1DHnVcITGY-296" style="edgeStyle=orthogonalEdgeStyle;rounded=1;sketch=1;hachureGap=4;jiggle=2;curveFitting=1;orthogonalLoop=1;jettySize=auto;html=1;strokeColor=#A8201A;fontFamily=Architects Daughter;fontSource=https%3A%2F%2Ffonts.googleapis.com%2Fcss%3Ffamily%3DArchitects%2BDaughter;fontSize=16;fontColor=default;fillColor=#FAE5C7;labelBackgroundColor=none;" edge="1" parent="1" source="XUXtn4tgAi1DHnVcITGY-281" target="XUXtn4tgAi1DHnVcITGY-273">
          <mxGeometry relative="1" as="geometry" />
        </mxCell>
        <mxCell id="XUXtn4tgAi1DHnVcITGY-297" style="edgeStyle=orthogonalEdgeStyle;rounded=1;sketch=1;hachureGap=4;jiggle=2;curveFitting=1;orthogonalLoop=1;jettySize=auto;html=1;entryX=0;entryY=0.5;entryDx=0;entryDy=0;strokeColor=#A8201A;fontFamily=Architects Daughter;fontSource=https%3A%2F%2Ffonts.googleapis.com%2Fcss%3Ffamily%3DArchitects%2BDaughter;fontSize=16;fontColor=default;fillColor=#FAE5C7;labelBackgroundColor=none;" edge="1" parent="1" source="XUXtn4tgAi1DHnVcITGY-269" target="112">
          <mxGeometry relative="1" as="geometry" />
        </mxCell>
        <mxCell id="XUXtn4tgAi1DHnVcITGY-298" style="edgeStyle=orthogonalEdgeStyle;rounded=1;sketch=1;hachureGap=4;jiggle=2;curveFitting=1;orthogonalLoop=1;jettySize=auto;html=1;entryX=0;entryY=0.5;entryDx=0;entryDy=0;strokeColor=#A8201A;fontFamily=Architects Daughter;fontSource=https%3A%2F%2Ffonts.googleapis.com%2Fcss%3Ffamily%3DArchitects%2BDaughter;fontSize=16;fontColor=default;fillColor=#FAE5C7;labelBackgroundColor=none;" edge="1" parent="1" source="87" target="XUXtn4tgAi1DHnVcITGY-225">
          <mxGeometry relative="1" as="geometry" />
        </mxCell>
      </root>
    </mxGraphModel>
  </diagram>
</mxfile>
